<svg width="30" height="32" viewBox="0 0 30 32" fill="none" xmlns="http://www.w3.org/2000/svg">
<path d="M7.87159 30.1438V25.1309C7.87159 24.8816 7.65264 24.6797 7.38502 24.6797C7.11739 24.6797 6.89844 24.8827 6.89844 25.1309V30.1429C6.89844 30.3922 7.11739 30.5941 7.38502 30.5941C7.65244 30.5941 7.87159 30.3922 7.87159 30.1438V30.1438Z" fill="#514EF9"/>
<path d="M12.8203 26.0528V31.0647C12.8203 31.3141 13.0393 31.516 13.3069 31.516C13.5745 31.516 13.7935 31.3129 13.7935 31.0647V26.0528C13.7935 25.8035 13.5745 25.6016 13.3069 25.6016C13.0393 25.6016 12.8203 25.8035 12.8203 26.0528Z" fill="#514EF9"/>
<path d="M9.85938 29.4671V31.7914C9.85938 31.907 10.0812 32.0007 10.3523 32.0007C10.6234 32.0007 10.8453 31.9065 10.8453 31.7914V29.4671C10.8453 29.3515 10.6234 29.2578 10.3523 29.2578C10.0812 29.2578 9.85938 29.3515 9.85938 29.4671Z" fill="#514EF9"/>
<path d="M4.92969 21.3722V25.2461C4.92969 25.4388 5.1515 25.5949 5.42263 25.5949C5.69375 25.5949 5.91557 25.4379 5.91557 25.2461V21.3722C5.91557 21.1795 5.69375 21.0234 5.42263 21.0234C5.1515 21.0234 4.92969 21.1795 4.92969 21.3722Z" fill="#514EF9"/>
<path d="M14.7891 23.3106V28.3211C14.7891 28.5704 15.008 28.7723 15.2756 28.7723C15.5433 28.7723 15.7622 28.5693 15.7622 28.3211V23.3106C15.7622 23.0613 15.5433 22.8594 15.2756 22.8594C15.008 22.8594 14.7891 23.0624 14.7891 23.3106Z" fill="#514EF9"/>
<path d="M11.3965 17.3866C11.2568 17.3508 11.1062 17.3999 11.0315 17.5057L6.98574 23.227C6.90583 23.3418 6.8796 23.4776 6.91192 23.6079C6.94423 23.7381 7.03299 23.8536 7.16071 23.9316C7.28842 24.0097 7.44612 24.0449 7.60282 24.0302L9.31479 23.8656L8.65154 28.0716C8.63196 28.1953 8.71606 28.3141 8.85463 28.3579C8.99307 28.4018 9.14902 28.3591 9.23067 28.255L13.7921 22.4735C13.8819 22.3596 13.9168 22.2208 13.8892 22.086C13.8617 21.951 13.7739 21.8301 13.6441 21.7481C13.5142 21.666 13.3519 21.6291 13.1908 21.6448L11.4788 21.8041L11.6248 17.6544V17.6544C11.6306 17.5315 11.5364 17.421 11.3964 17.3866L11.3965 17.3866ZM13.2623 22.1722L9.46243 26.9913L9.99552 23.5953V23.5952C10.0075 23.5183 9.97936 23.4409 9.91849 23.3829C9.85762 23.3248 9.76997 23.292 9.67823 23.2926H9.6417L7.53156 23.5014L10.9537 18.6648L10.8348 22.0985C10.8322 22.1762 10.8699 22.2509 10.9379 22.3033C11.0058 22.3556 11.0972 22.3806 11.1886 22.3716L13.2623 22.1722Z" fill="#DBC924"/>
<path d="M23.8784 10.3292C23.8784 7.8996 21.8391 5.91743 19.3392 5.91743C17.9249 5.91743 16.6091 6.55674 15.7209 7.64362C15.5236 7.8994 15.129 7.9634 14.8658 7.7714C14.6026 7.57962 14.5368 7.19607 14.7343 6.94027C15.8198 5.53359 17.4972 4.73438 19.3063 4.73438C22.4969 4.73438 25.0625 7.25978 25.0625 10.3289C25.0625 11.7356 24.5362 13.0463 23.5824 14.1011C23.4509 14.2288 23.2864 14.2928 23.1219 14.2928C22.9574 14.2928 22.8259 14.2289 22.6943 14.133C22.4311 13.9091 22.4311 13.5255 22.6614 13.3018C23.4507 12.4712 23.8784 11.4162 23.8784 10.3291L23.8784 10.3292Z" fill="#DD742D"/>
<path d="M19.5781 3.38868C19.2491 3.38868 18.9531 3.1329 18.9531 2.78122V0.607462C18.9531 0.287684 19.2163 0 19.5781 0C19.9399 0 20.2031 0.255778 20.2031 0.607462V2.78122C20.2031 3.13288 19.9069 3.38868 19.5781 3.38868Z" fill="#DD742D"/>
<path d="M14.0074 5.45983C13.8429 5.45983 13.6784 5.39583 13.5797 5.29994L12.0009 3.7655C11.7706 3.54161 11.7706 3.15804 12.0009 2.90229C12.2313 2.6784 12.6259 2.6784 12.8891 2.90229L14.4679 4.43673C14.6982 4.66062 14.6982 5.04419 14.4679 5.29994C14.3364 5.39583 14.1719 5.45983 14.0074 5.45983V5.45983Z" fill="#DD742D"/>
<path d="M25.1313 15.3827L26.71 16.9492C26.9404 17.1731 26.9404 17.5567 26.71 17.8124C26.5786 17.9402 26.4469 17.9723 26.2824 17.9723C26.1179 17.9723 25.9534 17.9083 25.8547 17.8124L24.2759 16.278C24.0456 16.0541 24.0456 15.6705 24.2759 15.4148C24.4735 15.159 24.8681 15.159 25.1312 15.3827L25.1313 15.3827Z" fill="#DD742D"/>
<path d="M26.4803 10.5371C26.4803 10.2174 26.7435 9.92969 27.1054 9.92969H29.375C29.704 9.92969 30 10.1855 30 10.5371C30 10.8888 29.7368 11.1446 29.375 11.1446H27.1384C26.7766 11.1446 26.4804 10.8569 26.4804 10.5371H26.4803Z" fill="#DD742D"/>
<path d="M25.4344 5.55775C25.3029 5.68553 25.1712 5.71764 25.0067 5.71764C24.8422 5.71764 24.6777 5.65364 24.5791 5.55775C24.3487 5.33386 24.3487 4.95029 24.5791 4.69454L26.1578 3.1601C26.3882 2.93622 26.7828 2.93622 27.046 3.1601C27.2763 3.38399 27.2763 3.76757 27.046 4.02331L25.4344 5.55775Z" fill="#DD742D"/>
<path d="M4.8208 20.0105H8.41195C8.62943 20.0105 8.80555 19.8472 8.80555 19.6455C8.80555 19.4439 8.62844 19.2805 8.41195 19.2805H4.8208C2.59762 19.2805 0.788776 17.603 0.788776 15.5404C0.788776 13.4805 2.59762 11.8039 4.90828 11.8039C5.1218 11.8039 5.29594 11.647 5.30089 11.4489C5.37469 9.02579 7.47974 7.12833 10.0934 7.12833C12.5597 7.12833 14.6106 8.84141 14.8653 11.1141C14.8772 11.2236 14.9411 11.3212 15.0405 11.3814C15.1388 11.4416 15.2629 11.4581 15.3741 11.4253C15.5965 11.3614 15.8229 11.3286 16.0483 11.3286C17.3335 11.3286 18.3777 12.2988 18.3777 13.4898L18.3718 13.6212C18.3648 13.7408 18.422 13.8557 18.5233 13.9297C18.6256 14.0036 18.7596 14.0254 18.8835 13.9889C19.1846 13.9005 19.4898 13.8557 19.7928 13.8557C21.4047 13.8557 22.7157 15.0722 22.7157 16.5672C22.7157 18.064 21.4049 19.2816 19.7928 19.2816H14.0601C13.8426 19.2816 13.6665 19.4449 13.6665 19.6466C13.6665 19.8483 13.8436 20.0116 14.0601 20.0116H19.7928C21.8389 20.0116 23.5038 18.4664 23.5038 16.5672C23.5038 14.6697 21.8397 13.1257 19.7928 13.1257C19.5773 13.1257 19.3618 13.1439 19.1471 13.1785C18.9621 11.5914 17.3402 10.3767 15.5856 10.6321C15.1034 8.19162 12.8163 6.39844 10.0942 6.39844C7.17724 6.39844 4.80437 8.42916 4.53781 11.0812C2.01066 11.2181 0 13.1666 0 15.5413C0 18.0055 2.16224 20.0105 4.8204 20.0105L4.8208 20.0105Z" fill="#3B86CB"/>
</svg>
