<svg width="23" height="22" viewBox="0 0 23 22" fill="none" xmlns="http://www.w3.org/2000/svg">
<path d="M4.68474 14.8882H8.17454C8.38588 14.8882 8.55703 14.7096 8.55703 14.489C8.55703 14.2684 8.38492 14.0898 8.17454 14.0898H4.68474C2.5243 14.0898 0.766514 12.255 0.766514 9.99902C0.766514 7.746 2.5243 5.91228 4.76975 5.91228C4.97724 5.91228 5.14647 5.74065 5.15128 5.52391C5.223 2.87367 7.26864 0.798319 9.80858 0.798319C12.2052 0.798319 14.1982 2.672 14.4458 5.1577C14.4573 5.27752 14.5194 5.38431 14.616 5.45015C14.7116 5.51599 14.8321 5.53404 14.9402 5.49811C15.1563 5.42826 15.3763 5.39233 15.5953 5.39233C16.8443 5.39233 17.859 6.45351 17.859 7.75615L17.8532 7.89986C17.8465 8.03071 17.9021 8.15638 18.0005 8.23727C18.1 8.31815 18.2301 8.34204 18.3505 8.3021C18.6432 8.20535 18.9397 8.15638 19.2342 8.15638C20.8006 8.15638 22.0746 9.48696 22.0746 11.1221C22.0746 12.7592 20.8008 14.0909 19.2342 14.0909H13.6633C13.4519 14.0909 13.2808 14.2696 13.2808 14.4902C13.2808 14.7107 13.4529 14.8894 13.6633 14.8894H19.2342C21.2225 14.8894 22.8405 13.1994 22.8405 11.1221C22.8405 9.04674 21.2233 7.35792 19.2342 7.35792C19.0247 7.35792 18.8153 7.37781 18.6067 7.41574C18.4269 5.67978 16.8508 4.35121 15.1457 4.63061C14.6771 1.96129 12.4546 0 9.8093 0C6.97468 0 4.66877 2.2211 4.40974 5.12174C1.95391 5.27147 0 7.40265 0 10.0001C0 12.6953 2.10121 14.8882 4.68435 14.8882L4.68474 14.8882Z" fill="#3B86CB"/>
<path d="M11.0144 16.75H7.01107C6.84108 16.75 6.70312 16.582 6.70312 16.375C6.70312 16.168 6.84108 16 7.01107 16H11.0144C11.5237 16 11.9382 15.4953 11.9382 14.875C11.9382 14.2548 11.5237 13.75 11.0144 13.75C10.505 13.75 10.0905 14.2548 10.0905 14.875C10.0905 15.082 9.95258 15.25 9.78259 15.25C9.6126 15.25 9.47464 15.082 9.47464 14.875C9.47464 13.8415 10.1657 13 11.0144 13C11.8637 13 12.5541 13.8415 12.5541 14.875C12.5541 15.9085 11.8637 16.75 11.0144 16.75Z" fill="#6A6A6A"/>
<path d="M13.7859 22C12.9366 22 12.2462 21.1593 12.2462 20.125C12.2462 19.918 12.3841 19.75 12.5541 19.75C12.7241 19.75 12.862 19.918 12.862 20.125C12.862 20.7453 13.2765 21.25 13.7859 21.25C14.2952 21.25 14.7097 20.7453 14.7097 20.125C14.7097 19.5048 14.2952 19 13.7859 19H7.01107C6.84108 19 6.70312 18.832 6.70312 18.625C6.70312 18.418 6.84108 18.25 7.01107 18.25H13.7859C14.6352 18.25 15.3256 19.0907 15.3256 20.125C15.3256 21.1593 14.6352 22 13.7859 22Z" fill="#6A6A6A"/>
</svg>
