<svg width="29" height="22" viewBox="0 0 29 22" fill="none" xmlns="http://www.w3.org/2000/svg">
<path d="M22.7914 11.2977C22.7914 8.6409 20.7234 6.47337 18.1882 6.47337C16.754 6.47337 15.4196 7.17247 14.5189 8.36098C14.3188 8.64068 13.9186 8.71067 13.6517 8.50071C13.3848 8.291 13.318 7.87159 13.5183 7.59186C14.6191 6.05364 16.3202 5.17969 18.1548 5.17969C21.3904 5.17969 23.9922 7.94125 23.9922 11.2974C23.9922 12.8356 23.4584 14.2689 22.4912 15.4223C22.3579 15.562 22.1911 15.632 22.0242 15.632C21.8574 15.632 21.7241 15.562 21.5905 15.4572C21.3237 15.2123 21.3237 14.7929 21.5573 14.5483C22.3577 13.64 22.7914 12.4863 22.7914 11.2976L22.7914 11.2977Z" fill="#DD742D"/>
<path d="M18.4287 3.70556C18.095 3.70556 17.7948 3.42587 17.7948 3.0413V0.664267C17.7948 0.314586 18.0617 0 18.4287 0C18.7956 0 19.0625 0.279697 19.0625 0.664267V3.0413C19.0625 3.42585 18.7621 3.70556 18.4287 3.70556Z" fill="#DD742D"/>
<path d="M12.7875 5.97251C12.6207 5.97251 12.4538 5.90252 12.3538 5.79767L10.7528 4.11974C10.5192 3.87491 10.5192 3.45547 10.7528 3.17581C10.9864 2.93098 11.3866 2.93098 11.6534 3.17581L13.2545 4.85373C13.4881 5.09856 13.4881 5.518 13.2545 5.79767C13.1212 5.90252 12.9543 5.97251 12.7875 5.97251V5.97251Z" fill="#DD742D"/>
<path d="M24.0597 16.8199L25.6607 18.5329C25.8943 18.7778 25.8943 19.1972 25.6607 19.4769C25.5274 19.6166 25.3939 19.6517 25.227 19.6517C25.0602 19.6517 24.8934 19.5817 24.7933 19.4769L23.1923 17.7989C22.9587 17.5541 22.9587 17.1347 23.1923 16.855C23.3926 16.5753 23.7928 16.5753 24.0597 16.8199L24.0597 16.8199Z" fill="#DD742D"/>
<path d="M25.4307 11.5315C25.4307 11.1818 25.6976 10.8672 26.0645 10.8672H28.3662C28.6998 10.8672 29 11.1469 29 11.5315C29 11.916 28.7331 12.1957 28.3662 12.1957H26.0981C25.7311 12.1957 25.4308 11.8812 25.4308 11.5315H25.4307Z" fill="#DD742D"/>
<path d="M24.3702 6.07892C24.2368 6.21864 24.1033 6.25376 23.9365 6.25376C23.7696 6.25376 23.6028 6.18377 23.5028 6.07892C23.2692 5.83409 23.2692 5.41465 23.5028 5.13498L25.1038 3.45706C25.3374 3.21223 25.7376 3.21223 26.0045 3.45706C26.2381 3.70188 26.2381 4.12132 26.0045 4.40099L24.3702 6.07892Z" fill="#DD742D"/>
<path d="M4.71746 21.5293H8.23163C8.44445 21.5293 8.61679 21.3549 8.61679 21.1397C8.61679 20.9244 8.44348 20.7501 8.23163 20.7501H4.71746C2.54193 20.7501 0.771868 18.9595 0.771868 16.7579C0.771868 14.5592 2.54193 12.7697 4.80306 12.7697C5.01201 12.7697 5.18242 12.6022 5.18726 12.3907C5.25948 9.80438 7.31941 7.77907 9.87708 7.77907C12.2904 7.77907 14.2974 9.60757 14.5467 12.0333C14.5583 12.1503 14.6208 12.2545 14.7181 12.3187C14.8143 12.383 14.9357 12.4006 15.0445 12.3655C15.2622 12.2974 15.4837 12.2623 15.7042 12.2623C16.9619 12.2623 17.9837 13.2979 17.9837 14.5691L17.9779 14.7094C17.9712 14.8371 18.0271 14.9597 18.1263 15.0387C18.2264 15.1176 18.3575 15.1409 18.4787 15.1019C18.7734 15.0075 19.072 14.9597 19.3685 14.9597C20.9459 14.9597 22.2287 16.2582 22.2287 17.854C22.2287 19.4516 20.9461 20.7512 19.3685 20.7512H13.7587C13.5459 20.7512 13.3735 20.9255 13.3735 21.1408C13.3735 21.356 13.5469 21.5304 13.7587 21.5304H19.3685C21.3707 21.5304 23 19.8811 23 17.854C23 15.8286 21.3715 14.1805 19.3685 14.1805C19.1576 14.1805 18.9467 14.1999 18.7366 14.2369C18.5556 12.5428 16.9685 11.2463 15.2515 11.519C14.7796 8.91401 12.5416 7 9.87782 7C7.02339 7 4.70138 9.16755 4.44054 11.9982C1.96756 12.1444 0 14.2242 0 16.7589C0 19.3892 2.11589 21.5292 4.71707 21.5292L4.71746 21.5293Z" fill="#3B86CB"/>
</svg>
