<svg width="23" height="19" viewBox="0 0 23 19" fill="none" xmlns="http://www.w3.org/2000/svg">
<path d="M9.0625 12.5537V16.9182C9.0625 17.1334 9.23581 17.3078 9.44766 17.3078C9.6595 17.3078 9.83282 17.1334 9.83282 16.9182V12.5537C9.83282 12.3384 9.6595 12.1641 9.44766 12.1641C9.23597 12.1641 9.0625 12.3394 9.0625 12.5537Z" fill="#514EF9"/>
<path d="M10.5781 14.2412V18.6057C10.5781 18.8209 10.7514 18.9953 10.9633 18.9953C11.1751 18.9953 11.3484 18.8209 11.3484 18.6057V14.2412C11.3484 14.0259 11.1751 13.8516 10.9633 13.8516C10.7514 13.8516 10.5781 14.0259 10.5781 14.2412Z" fill="#514EF9"/>
<path d="M12.0703 13.3271V17.6916C12.0703 17.9069 12.2436 18.0812 12.4555 18.0812C12.6673 18.0812 12.8406 17.9069 12.8406 17.6916V13.3271C12.8406 13.1118 12.6673 12.9375 12.4555 12.9375C12.2436 12.9375 12.0703 13.1118 12.0703 13.3271Z" fill="#514EF9"/>
<path d="M4.71746 14.5293H8.23163C8.44445 14.5293 8.61679 14.3549 8.61679 14.1397C8.61679 13.9244 8.44348 13.7501 8.23163 13.7501H4.71746C2.54193 13.7501 0.771868 11.9595 0.771868 9.75793C0.771868 7.55923 2.54193 5.76973 4.80306 5.76973C5.01201 5.76973 5.18242 5.60224 5.18726 5.39072C5.25948 2.80438 7.31941 0.77907 9.87708 0.77907C12.2904 0.77907 14.2974 2.60757 14.5467 5.03334C14.5583 5.15028 14.6208 5.25449 14.7181 5.31874C14.8143 5.383 14.9357 5.40061 15.0445 5.36554C15.2622 5.29738 15.4837 5.26231 15.7042 5.26231C16.9619 5.26231 17.9837 6.29791 17.9837 7.56914L17.9779 7.70939C17.9712 7.83708 18.0271 7.95972 18.1263 8.03866C18.2264 8.11759 18.3575 8.14091 18.4787 8.10193C18.7734 8.00751 19.072 7.95972 19.3685 7.95972C20.9459 7.95972 22.2287 9.25822 22.2287 10.854C22.2287 12.4516 20.9461 13.7512 19.3685 13.7512H13.7587C13.5459 13.7512 13.3735 13.9255 13.3735 14.1408C13.3735 14.356 13.5469 14.5304 13.7587 14.5304H19.3685C21.3707 14.5304 23 12.8811 23 10.854C23 8.82861 21.3715 7.18051 19.3685 7.18051C19.1576 7.18051 18.9467 7.19992 18.7366 7.23694C18.5556 5.54283 16.9685 4.2463 15.2515 4.51896C14.7796 1.91401 12.5416 0 9.87782 0C7.02339 0 4.70138 2.16755 4.44054 4.99825C1.96756 5.14437 0 7.22416 0 9.75894C0 12.3892 2.11589 14.5292 4.71707 14.5292L4.71746 14.5293Z" fill="#3B86CB"/>
</svg>
