<svg width="29" height="24" viewBox="0 0 29 24" fill="none" xmlns="http://www.w3.org/2000/svg">
<path d="M28.9619 7.71811C29.0318 7.58987 29.0038 7.44884 28.892 7.35915C28.7941 7.25658 28.6265 7.24379 28.5007 7.29503C27.7462 7.62833 26.9217 7.79501 26.0832 7.79501C22.9949 7.79501 20.4936 5.50024 20.4936 2.66703C20.4936 1.89779 20.6753 1.14143 21.0386 0.4492C21.1084 0.320964 21.0805 0.179935 20.9687 0.0902416C20.8569 0.000458412 20.7031 -0.0251174 20.5774 0.0261235C18.3974 0.974754 17 3.02599 17 5.23102C17 8.41037 19.8228 11 23.2884 11C25.6919 11 27.9278 9.71801 28.9619 7.71809L28.9619 7.71811ZM23.2884 10.359C20.2001 10.359 17.6987 8.06425 17.6987 5.23104C17.6987 3.56442 18.5931 2.01323 20.0463 1.05173C19.8787 1.57728 19.7948 2.11579 19.7948 2.66702C19.7948 5.84637 22.6176 8.436 26.0832 8.436C26.6841 8.436 27.2711 8.35909 27.8439 8.20529C26.7959 9.53852 25.105 10.359 23.2884 10.359L23.2884 10.359Z" fill="#6D7AE5"/>
<path d="M9.39844 16.8602V21.3325C9.39844 21.5531 9.57808 21.7317 9.79767 21.7317C10.0173 21.7317 10.1969 21.5531 10.1969 21.3325V16.8602C10.1969 16.6396 10.0173 16.4609 9.79767 16.4609C9.57825 16.4609 9.39844 16.6406 9.39844 16.8602Z" fill="#514EF9"/>
<path d="M10.9609 18.5945V23.0669C10.9609 23.2875 11.1406 23.4661 11.3602 23.4661C11.5798 23.4661 11.7594 23.2875 11.7594 23.0669V18.5945C11.7594 18.374 11.5798 18.1953 11.3602 18.1953C11.1406 18.1953 10.9609 18.374 10.9609 18.5945Z" fill="#514EF9"/>
<path d="M12.5156 17.6492V22.1216C12.5156 22.3421 12.6953 22.5208 12.9149 22.5208C13.1344 22.5208 13.3141 22.3421 13.3141 22.1216V17.6492C13.3141 17.4286 13.1344 17.25 12.9149 17.25C12.6953 17.25 12.5156 17.4286 12.5156 17.6492Z" fill="#514EF9"/>
<path d="M4.88985 18.8882H8.53244C8.75303 18.8882 8.93167 18.7096 8.93167 18.489C8.93167 18.2684 8.75202 18.0898 8.53244 18.0898H4.88985C2.63482 18.0898 0.800074 16.255 0.800074 13.999C0.800074 11.746 2.63482 9.91228 4.97858 9.91228C5.19516 9.91228 5.3718 9.74065 5.37681 9.52391C5.45168 6.87367 7.58688 4.79832 10.238 4.79832C12.7395 4.79832 14.8199 6.672 15.0783 9.1577C15.0903 9.27752 15.1551 9.38431 15.2559 9.45015C15.3557 9.51599 15.4815 9.53404 15.5943 9.49811C15.8199 9.42826 16.0495 9.39233 16.2781 9.39233C17.5818 9.39233 18.6409 10.4535 18.6409 11.7561L18.6349 11.8999C18.6279 12.0307 18.6859 12.1564 18.7886 12.2373C18.8924 12.3181 19.0283 12.342 19.1539 12.3021C19.4594 12.2053 19.7689 12.1564 20.0763 12.1564C21.7113 12.1564 23.041 13.487 23.041 15.1221C23.041 16.7592 21.7115 18.0909 20.0763 18.0909H14.2615C14.0409 18.0909 13.8622 18.2696 13.8622 18.4902C13.8622 18.7107 14.0419 18.8894 14.2615 18.8894H20.0763C22.1517 18.8894 23.8405 17.1994 23.8405 15.1221C23.8405 13.0467 22.1525 11.3579 20.0763 11.3579C19.8577 11.3579 19.6391 11.3778 19.4213 11.4157C19.2337 9.67978 17.5886 8.35121 15.8089 8.63061C15.3197 5.96129 12.9999 4 10.2388 4C7.28004 4 4.87318 6.2211 4.60281 9.12174C2.03946 9.27147 0 11.4027 0 14.0001C0 16.6953 2.19321 18.8882 4.88944 18.8882L4.88985 18.8882Z" fill="#E0E0E0"/>
</svg>
