<svg width="24" height="20" viewBox="0 0 24 20" fill="none" xmlns="http://www.w3.org/2000/svg">
<path d="M9.39844 12.8602V17.3325C9.39844 17.5531 9.57808 17.7317 9.79767 17.7317C10.0173 17.7317 10.1969 17.5531 10.1969 17.3325V12.8602C10.1969 12.6396 10.0173 12.4609 9.79767 12.4609C9.57825 12.4609 9.39844 12.6406 9.39844 12.8602Z" fill="#514EF9"/>
<path d="M10.9609 14.5945V19.0669C10.9609 19.2875 11.1406 19.4661 11.3602 19.4661C11.5798 19.4661 11.7594 19.2875 11.7594 19.0669V14.5945C11.7594 14.374 11.5798 14.1953 11.3602 14.1953C11.1406 14.1953 10.9609 14.374 10.9609 14.5945Z" fill="#514EF9"/>
<path d="M12.5156 13.6492V18.1216C12.5156 18.3421 12.6953 18.5208 12.9149 18.5208C13.1344 18.5208 13.3141 18.3421 13.3141 18.1216V13.6492C13.3141 13.4286 13.1344 13.25 12.9149 13.25C12.6953 13.25 12.5156 13.4286 12.5156 13.6492Z" fill="#514EF9"/>
<path d="M4.88985 14.8882H8.53244C8.75303 14.8882 8.93167 14.7096 8.93167 14.489C8.93167 14.2684 8.75202 14.0898 8.53244 14.0898H4.88985C2.63482 14.0898 0.800074 12.255 0.800074 9.99902C0.800074 7.746 2.63482 5.91228 4.97858 5.91228C5.19516 5.91228 5.3718 5.74065 5.37681 5.52391C5.45168 2.87367 7.58688 0.798319 10.238 0.798319C12.7395 0.798319 14.8199 2.672 15.0783 5.1577C15.0903 5.27752 15.1551 5.38431 15.2559 5.45015C15.3557 5.51599 15.4815 5.53404 15.5943 5.49811C15.8199 5.42826 16.0495 5.39233 16.2781 5.39233C17.5818 5.39233 18.6409 6.45351 18.6409 7.75615L18.6349 7.89986C18.6279 8.03071 18.6859 8.15638 18.7886 8.23727C18.8924 8.31815 19.0283 8.34204 19.1539 8.3021C19.4594 8.20535 19.7689 8.15638 20.0763 8.15638C21.7113 8.15638 23.041 9.48696 23.041 11.1221C23.041 12.7592 21.7115 14.0909 20.0763 14.0909H14.2615C14.0409 14.0909 13.8622 14.2696 13.8622 14.4902C13.8622 14.7107 14.0419 14.8894 14.2615 14.8894H20.0763C22.1517 14.8894 23.8405 13.1994 23.8405 11.1221C23.8405 9.04674 22.1525 7.35792 20.0763 7.35792C19.8577 7.35792 19.6391 7.37781 19.4213 7.41574C19.2337 5.67978 17.5886 4.35121 15.8089 4.63061C15.3197 1.96129 12.9999 0 10.2388 0C7.28004 0 4.87318 2.2211 4.60281 5.12174C2.03946 5.27147 0 7.40265 0 10.0001C0 12.6953 2.19321 14.8882 4.88944 14.8882L4.88985 14.8882Z" fill="#E0E0E0"/>
</svg>
