<svg width="24" height="28" viewBox="0 0 24 28" fill="none" xmlns="http://www.w3.org/2000/svg">
<path d="M7.98709 25.9764V20.4935C7.98709 20.2208 7.76501 20 7.49355 20C7.22209 20 7 20.2221 7 20.4935V25.9753C7 26.248 7.22209 26.4689 7.49355 26.4689C7.7648 26.4689 7.98709 26.248 7.98709 25.9764V25.9764Z" fill="#514EF9"/>
<path d="M13 21.4935V26.9753C13 27.248 13.2221 27.4689 13.4935 27.4689C13.765 27.4689 13.9871 27.2468 13.9871 26.9753V21.4935C13.9871 21.2208 13.765 21 13.4935 21C13.2221 21 13 21.2208 13 21.4935Z" fill="#514EF9"/>
<path d="M10 25.2289V27.7711C10 27.8976 10.225 28 10.5 28C10.775 28 11 27.897 11 27.7711V25.2289C11 25.1024 10.775 25 10.5 25C10.225 25 10 25.1024 10 25.2289Z" fill="#514EF9"/>
<path d="M5 16.3815V20.6185C5 20.8293 5.22499 21 5.5 21C5.77501 21 6 20.8283 6 20.6185V16.3815C6 16.1707 5.77501 16 5.5 16C5.22499 16 5 16.1707 5 16.3815Z" fill="#514EF9"/>
<path d="M15 18.4935V23.9738C15 24.2465 15.2221 24.4673 15.4935 24.4673C15.765 24.4673 15.9871 24.2452 15.9871 23.9738V18.4935C15.9871 18.2208 15.765 18 15.4935 18C15.2221 18 15 18.2221 15 18.4935Z" fill="#514EF9"/>
<path d="M11.4981 12.0116C11.3584 11.9758 11.2078 12.0249 11.1331 12.1307L7.0873 17.852C7.0074 17.9668 6.98117 18.1026 7.01348 18.2329C7.0458 18.3631 7.13455 18.4786 7.26227 18.5566C7.38998 18.6347 7.54768 18.6699 7.70438 18.6552L9.41635 18.4906L8.75311 22.6966C8.73352 22.8203 8.81763 22.9391 8.95619 22.9829C9.09464 23.0268 9.25058 22.9841 9.33223 22.88L13.8936 17.0985C13.9835 16.9846 14.0184 16.8458 13.9908 16.711C13.9632 16.576 13.8755 16.4551 13.7457 16.3731C13.6157 16.291 13.4535 16.2541 13.2924 16.2698L11.5804 16.4291L11.7264 12.2794V12.2794C11.7321 12.1565 11.6379 12.046 11.4979 12.0116L11.4981 12.0116ZM13.3638 16.7972L9.56399 21.6163L10.0971 18.2203V18.2202C10.109 18.1433 10.0809 18.0659 10.0201 18.0079C9.95919 17.9498 9.87153 17.917 9.77979 17.9176H9.74327L7.63313 18.1264L11.0553 13.2898L10.9363 16.7235C10.9338 16.8012 10.9714 16.8759 11.0395 16.9283C11.1073 16.9806 11.1987 17.0056 11.2901 16.9966L13.3638 16.7972Z" fill="#DBC924"/>
<path d="M4.88985 14.8882H8.53244C8.75303 14.8882 8.93167 14.7096 8.93167 14.489C8.93167 14.2684 8.75202 14.0898 8.53244 14.0898H4.88985C2.63482 14.0898 0.800074 12.255 0.800074 9.99902C0.800074 7.746 2.63482 5.91228 4.97858 5.91228C5.19516 5.91228 5.3718 5.74065 5.37681 5.52391C5.45168 2.87367 7.58688 0.798319 10.238 0.798319C12.7395 0.798319 14.8199 2.672 15.0783 5.1577C15.0903 5.27752 15.1551 5.38431 15.2559 5.45015C15.3557 5.51599 15.4815 5.53404 15.5943 5.49811C15.8199 5.42826 16.0495 5.39233 16.2781 5.39233C17.5818 5.39233 18.6409 6.45351 18.6409 7.75615L18.6349 7.89986C18.6279 8.03071 18.6859 8.15638 18.7886 8.23727C18.8924 8.31815 19.0283 8.34204 19.1539 8.3021C19.4594 8.20535 19.7689 8.15638 20.0763 8.15638C21.7113 8.15638 23.041 9.48696 23.041 11.1221C23.041 12.7592 21.7115 14.0909 20.0763 14.0909H14.2615C14.0409 14.0909 13.8622 14.2696 13.8622 14.4902C13.8622 14.7107 14.0419 14.8894 14.2615 14.8894H20.0763C22.1517 14.8894 23.8405 13.1994 23.8405 11.1221C23.8405 9.04674 22.1525 7.35792 20.0763 7.35792C19.8577 7.35792 19.6391 7.37781 19.4213 7.41574C19.2337 5.67978 17.5886 4.35121 15.8089 4.63061C15.3197 1.96129 12.9999 0 10.2388 0C7.28004 0 4.87318 2.2211 4.60281 5.12174C2.03946 5.27147 0 7.40265 0 10.0001C0 12.6953 2.19321 14.8882 4.88944 14.8882L4.88985 14.8882Z" fill="#E0E0E0"/>
</svg>
