<?xml version="1.0" encoding="UTF-8" standalone="no"?>
<svg
   width="291.14099"
   height="37.804741"
   viewBox="0 0 291.14099 37.804741"
   fill="none"
   version="1.1"
   id="svg16"
   xmlns="http://www.w3.org/2000/svg"
   xmlnsSvg="http://www.w3.org/2000/svg">
  <defs
     id="defs20" />
  <path
     d="m 59.4434,6.26174 c 3.3164,0 5.7363,0.7148 7.2597,2.1445 1.5235,1.418 2.2852,3.375 2.2852,5.8711 0,1.125 -0.1699,2.2031 -0.5098,3.2344 -0.3398,1.0195 -0.8965,1.9277 -1.6699,2.7246 -0.7617,0.7969 -1.7813,1.4297 -3.0586,1.8984 -1.2773,0.4571 -2.8535,0.6856 -4.7285,0.6856 h -2.3379 v 9.1406 H 51.2344 V 6.26174 Z m -0.2813,4.4648 h -2.4785 v 7.6289 h 1.793 c 1.0195,0 1.9043,-0.1347 2.6543,-0.4043 0.75,-0.2695 1.33,-0.6914 1.7402,-1.2656 0.4101,-0.5742 0.6152,-1.3125 0.6152,-2.2148 0,-1.2657 -0.3515,-2.2032 -1.0547,-2.8125 -0.7031,-0.6211 -1.7929,-0.9317 -3.2695,-0.9317 z m 30.4102,21.2344 -1.8633,-6.1172 h -9.3692 l -1.8632,6.1172 h -5.8711 l 9.0703,-25.8047 h 6.6621 l 9.1051,25.8047 z m -3.1641,-10.6875 -1.8633,-5.9766 c -0.1172,-0.3984 -0.2754,-0.9082 -0.4746,-1.5293 -0.1875,-0.6328 -0.3808,-1.2714 -0.5801,-1.916 -0.1875,-0.6562 -0.3398,-1.2246 -0.457,-1.7051 -0.1172,0.4805 -0.2812,1.0782 -0.4922,1.793 -0.1992,0.7031 -0.3926,1.3711 -0.5801,2.0039 -0.1875,0.6328 -0.3222,1.084 -0.4043,1.3535 l -1.8457,5.9766 z m 27.4568,3.5508 c 0,1.5234 -0.369,2.8476 -1.107,3.9726 -0.738,1.125 -1.817,1.9922 -3.235,2.6016 -1.406,0.6094 -3.117,0.9141 -5.132,0.9141 -0.891,0 -1.764,-0.0586 -2.62,-0.1758 -0.843,-0.1172 -1.658,-0.2871 -2.443,-0.5098 -0.773,-0.2344 -1.512,-0.5215 -2.215,-0.8613 v -5.0625 c 1.219,0.539 2.485,1.0254 3.797,1.459 1.313,0.4336 2.613,0.6504 3.902,0.6504 0.891,0 1.606,-0.1172 2.145,-0.3516 0.551,-0.2344 0.949,-0.5566 1.195,-0.9668 0.246,-0.4102 0.369,-0.8789 0.369,-1.4062 0,-0.6446 -0.216,-1.1954 -0.65,-1.6524 -0.433,-0.457 -1.031,-0.8848 -1.793,-1.2832 -0.75,-0.3984 -1.599,-0.8262 -2.549,-1.2832 -0.597,-0.2812 -1.248,-0.6211 -1.951,-1.0195 -0.703,-0.4102 -1.371,-0.9082 -2.004,-1.4942 -0.633,-0.5859 -1.154,-1.2949 -1.564,-2.1269 -0.399,-0.8438 -0.598,-1.8516 -0.598,-3.0235 0,-1.5351 0.352,-2.8476 1.055,-3.9375 0.703,-1.0898 1.705,-1.9218 3.006,-2.4961 1.312,-0.5859 2.859,-0.8789 4.64,-0.8789 1.336,0 2.608,0.1582 3.815,0.4746 1.218,0.3047 2.49,0.7501 3.814,1.336 l -1.758,4.2363 c -1.183,-0.4805 -2.244,-0.8496 -3.181,-1.1074 -0.938,-0.2695 -1.893,-0.4043 -2.865,-0.4043 -0.68,0 -1.26,0.1113 -1.741,0.334 -0.48,0.2109 -0.843,0.5156 -1.09,0.914 -0.246,0.3868 -0.369,0.8379 -0.369,1.3536 0,0.6093 0.176,1.125 0.528,1.5468 0.363,0.4102 0.902,0.8086 1.617,1.1953 0.726,0.3868 1.629,0.8379 2.707,1.3536 1.312,0.6211 2.431,1.2714 3.357,1.9511 0.938,0.668 1.658,1.459 2.162,2.3731 0.504,0.9023 0.756,2.0273 0.756,3.375 z m 19.828,0 c 0,1.5234 -0.369,2.8476 -1.107,3.9726 -0.738,1.125 -1.816,1.9922 -3.234,2.6016 -1.407,0.6094 -3.118,0.9141 -5.133,0.9141 -0.891,0 -1.764,-0.0586 -2.619,-0.1758 -0.844,-0.1172 -1.659,-0.2871 -2.444,-0.5098 -0.773,-0.2344 -1.511,-0.5215 -2.215,-0.8613 v -5.0625 c 1.219,0.539 2.485,1.0254 3.797,1.459 1.313,0.4336 2.614,0.6504 3.903,0.6504 0.89,0 1.605,-0.1172 2.144,-0.3516 0.551,-0.2344 0.949,-0.5566 1.195,-0.9668 0.247,-0.4102 0.37,-0.8789 0.37,-1.4062 0,-0.6446 -0.217,-1.1954 -0.651,-1.6524 -0.433,-0.457 -1.031,-0.8848 -1.793,-1.2832 -0.75,-0.3984 -1.599,-0.8262 -2.549,-1.2832 -0.597,-0.2812 -1.248,-0.6211 -1.951,-1.0195 -0.703,-0.4102 -1.371,-0.9082 -2.004,-1.4942 -0.632,-0.5859 -1.154,-1.2949 -1.564,-2.1269 -0.399,-0.8438 -0.598,-1.8516 -0.598,-3.0235 0,-1.5351 0.352,-2.8476 1.055,-3.9375 0.703,-1.0898 1.705,-1.9218 3.006,-2.4961 1.312,-0.5859 2.859,-0.8789 4.64,-0.8789 1.336,0 2.608,0.1582 3.815,0.4746 1.219,0.3047 2.49,0.7501 3.814,1.336 l -1.758,4.2363 c -1.183,-0.4805 -2.244,-0.8496 -3.181,-1.1074 -0.938,-0.2695 -1.893,-0.4043 -2.865,-0.4043 -0.68,0 -1.26,0.1113 -1.741,0.334 -0.48,0.2109 -0.843,0.5156 -1.089,0.914 -0.247,0.3868 -0.37,0.8379 -0.37,1.3536 0,0.6093 0.176,1.125 0.528,1.5468 0.363,0.4102 0.902,0.8086 1.617,1.1953 0.727,0.3868 1.629,0.8379 2.707,1.3536 1.312,0.6211 2.432,1.2714 3.357,1.9511 0.938,0.668 1.659,1.459 2.163,2.3731 0.503,0.9023 0.755,2.0273 0.755,3.375 z"
     fill="#ffffff"
     id="path2" />
  <path
     d="m 152.82,0.53906 c 1.474,0 2.55,0.30209 3.227,0.90626 0.677,0.60416 1.015,1.45052 1.015,2.53902 0,0.4948 -0.078,0.9662 -0.234,1.4141 -0.151,0.4427 -0.401,0.8359 -0.75,1.1797 -0.349,0.3385 -0.81,0.6068 -1.383,0.8047 -0.567,0.1979 -1.268,0.2969 -2.101,0.2969 h -1.219 v 4.2812 H 149.5 V 0.53906 Z m -0.125,1.55469 h -1.32 v 4.02339 h 1.023 c 0.589,0 1.089,-0.0677 1.5,-0.2031 0.412,-0.1406 0.724,-0.362 0.938,-0.664 0.213,-0.3021 0.32,-0.7006 0.32,-1.1953 0,-0.66151 -0.2,-1.1537 -0.601,-1.47661 -0.396,-0.32292 -1.016,-0.48438 -1.86,-0.48438 z m 14.117,5.52339 c 0,0.7188 -0.093,1.3568 -0.281,1.9141 -0.187,0.5573 -0.461,1.0287 -0.82,1.4141 -0.359,0.3802 -0.792,0.6718 -1.297,0.875 -0.505,0.1979 -1.075,0.2968 -1.711,0.2968 -0.594,0 -1.138,-0.0989 -1.633,-0.2968 -0.494,-0.2032 -0.924,-0.4948 -1.289,-0.875 -0.359,-0.3854 -0.638,-0.8568 -0.836,-1.4141 -0.198,-0.5573 -0.297,-1.1953 -0.297,-1.9141 0,-0.9531 0.164,-1.7604 0.493,-2.4218 0.333,-0.6667 0.807,-1.1745 1.421,-1.52346 0.615,-0.34896 1.347,-0.52344 2.196,-0.52344 0.797,0 1.5,0.17448 2.109,0.52344 0.61,0.34896 1.086,0.85676 1.43,1.52346 0.344,0.6666 0.515,1.4739 0.515,2.4218 z m -6.273,0 c 0,0.6303 0.076,1.1693 0.227,1.6172 0.156,0.448 0.395,0.7917 0.718,1.0313 0.323,0.2344 0.74,0.3515 1.25,0.3515 0.511,0 0.927,-0.1171 1.25,-0.3515 0.323,-0.2396 0.56,-0.5833 0.711,-1.0313 0.151,-0.4479 0.227,-0.9869 0.227,-1.6172 0,-0.6302 -0.076,-1.164 -0.227,-1.6015 -0.151,-0.4427 -0.388,-0.7787 -0.711,-1.0078 -0.323,-0.2344 -0.742,-0.3516 -1.257,-0.3516 -0.761,0 -1.316,0.2552 -1.665,0.7656 -0.348,0.5105 -0.523,1.2422 -0.523,2.1953 z m 14.195,1.875 c 0,0.5678 -0.138,1.0469 -0.414,1.4376 -0.276,0.3906 -0.679,0.6874 -1.211,0.8906 -0.526,0.1979 -1.171,0.2968 -1.937,0.2968 -0.604,0 -1.125,-0.0442 -1.563,-0.1328 -0.432,-0.0833 -0.841,-0.2135 -1.226,-0.3906 v -1.5859 c 0.411,0.1927 0.872,0.3593 1.383,0.5 0.515,0.1406 1.002,0.2109 1.461,0.2109 0.604,0 1.039,-0.0937 1.304,-0.2812 0.266,-0.1927 0.399,-0.448 0.399,-0.7657 0,-0.1875 -0.055,-0.3541 -0.164,-0.5 -0.105,-0.151 -0.302,-0.3047 -0.594,-0.4609 -0.287,-0.1615 -0.708,-0.3542 -1.266,-0.5781 -0.547,-0.2188 -1.008,-0.4375 -1.383,-0.6563 -0.375,-0.2187 -0.658,-0.4817 -0.851,-0.789 -0.193,-0.3125 -0.289,-0.711 -0.289,-1.1954 0,-0.7656 0.302,-1.3463 0.906,-1.74214 0.609,-0.40104 1.414,-0.60156 2.414,-0.60156 0.531,0 1.031,0.05469 1.5,0.16406 0.474,0.10417 0.938,0.25782 1.391,0.46094 l -0.578,1.3828 c -0.391,-0.1719 -0.784,-0.3125 -1.18,-0.4219 -0.391,-0.1145 -0.789,-0.1718 -1.195,-0.1718 -0.474,0 -0.836,0.0729 -1.086,0.2187 -0.245,0.1458 -0.367,0.3542 -0.367,0.625 0,0.2031 0.059,0.375 0.179,0.5156 0.12,0.1407 0.326,0.2813 0.617,0.4219 0.297,0.1406 0.709,0.3151 1.235,0.5234 0.515,0.198 0.961,0.4063 1.336,0.625 0.38,0.2136 0.672,0.4766 0.875,0.7891 0.203,0.3125 0.304,0.7162 0.304,1.2109 z m 5.204,1.1407 c 0.239,0 0.476,-0.0209 0.71,-0.0625 0.235,-0.0469 0.448,-0.1016 0.641,-0.1641 v 1.3906 c -0.203,0.0886 -0.466,0.1641 -0.789,0.2266 -0.323,0.0625 -0.659,0.0937 -1.008,0.0937 -0.489,0 -0.93,-0.0807 -1.32,-0.2421 -0.391,-0.1667 -0.701,-0.4506 -0.93,-0.8516 -0.229,-0.401 -0.344,-0.9557 -0.344,-1.6641 v -4.6484 h -1.179 V 3.89063 l 1.265,-0.64844 0.602,-1.85156 h 1.156 V 3.3125 h 2.477 v 1.39844 h -2.477 v 4.625 c 0,0.4375 0.11,0.763 0.328,0.9766 0.219,0.2135 0.508,0.3203 0.868,0.3203 z m 14.531,1.3281 -1.117,-3.1719 h -4.368 l -1.117,3.1719 h -1.976 l 4.25,-11.46875 h 2.078 l 4.242,11.46875 z m -1.602,-4.7812 -1.086,-3.125 c -0.041,-0.13547 -0.101,-0.32557 -0.179,-0.57036 -0.079,-0.25 -0.157,-0.50261 -0.235,-0.75782 -0.078,-0.26041 -0.143,-0.47916 -0.195,-0.65624 -0.052,0.21354 -0.117,0.45312 -0.195,0.71874 -0.073,0.26042 -0.146,0.50521 -0.219,0.73438 -0.068,0.22917 -0.12,0.40625 -0.156,0.5313 l -1.094,3.125 z m 10.727,2.3124 c 0,0.5678 -0.138,1.0469 -0.414,1.4376 -0.276,0.3906 -0.68,0.6874 -1.211,0.8906 -0.526,0.1979 -1.172,0.2968 -1.938,0.2968 -0.604,0 -1.125,-0.0442 -1.562,-0.1328 -0.433,-0.0833 -0.841,-0.2135 -1.227,-0.3906 v -1.5859 c 0.412,0.1927 0.873,0.3593 1.383,0.5 0.516,0.1406 1.003,0.2109 1.461,0.2109 0.604,0 1.039,-0.0937 1.305,-0.2812 0.265,-0.1927 0.398,-0.448 0.398,-0.7657 0,-0.1875 -0.055,-0.3541 -0.164,-0.5 -0.104,-0.151 -0.302,-0.3047 -0.594,-0.4609 -0.286,-0.1615 -0.708,-0.3542 -1.265,-0.5781 -0.547,-0.2188 -1.008,-0.4375 -1.383,-0.6563 -0.375,-0.2187 -0.659,-0.4817 -0.852,-0.789 -0.192,-0.3125 -0.289,-0.711 -0.289,-1.1954 0,-0.7656 0.302,-1.3463 0.906,-1.74214 0.61,-0.40104 1.414,-0.60156 2.414,-0.60156 0.532,0 1.032,0.05469 1.5,0.16406 0.474,0.10417 0.938,0.25782 1.391,0.46094 l -0.578,1.3828 c -0.391,-0.1719 -0.784,-0.3125 -1.18,-0.4219 -0.39,-0.1145 -0.789,-0.1718 -1.195,-0.1718 -0.474,0 -0.836,0.0729 -1.086,0.2187 -0.245,0.1458 -0.367,0.3542 -0.367,0.625 0,0.2031 0.06,0.375 0.18,0.5156 0.119,0.1407 0.325,0.2813 0.617,0.4219 0.297,0.1406 0.708,0.3151 1.234,0.5234 0.516,0.198 0.961,0.4063 1.336,0.625 0.38,0.2136 0.672,0.4766 0.875,0.7891 0.203,0.3125 0.305,0.7162 0.305,1.2109 z m 7.797,0 c 0,0.5678 -0.138,1.0469 -0.414,1.4376 -0.276,0.3906 -0.68,0.6874 -1.211,0.8906 -0.526,0.1979 -1.172,0.2968 -1.938,0.2968 -0.604,0 -1.125,-0.0442 -1.562,-0.1328 -0.433,-0.0833 -0.842,-0.2135 -1.227,-0.3906 v -1.5859 c 0.412,0.1927 0.872,0.3593 1.383,0.5 0.516,0.1406 1.002,0.2109 1.461,0.2109 0.604,0 1.039,-0.0937 1.305,-0.2812 0.265,-0.1927 0.398,-0.448 0.398,-0.7657 0,-0.1875 -0.055,-0.3541 -0.164,-0.5 -0.104,-0.151 -0.302,-0.3047 -0.594,-0.4609 -0.286,-0.1615 -0.708,-0.3542 -1.266,-0.5781 -0.546,-0.2188 -1.007,-0.4375 -1.382,-0.6563 -0.375,-0.2187 -0.659,-0.4817 -0.852,-0.789 -0.193,-0.3125 -0.289,-0.711 -0.289,-1.1954 0,-0.7656 0.302,-1.3463 0.906,-1.74214 0.61,-0.40104 1.414,-0.60156 2.414,-0.60156 0.532,0 1.032,0.05469 1.5,0.16406 0.474,0.10417 0.938,0.25782 1.391,0.46094 l -0.578,1.3828 c -0.391,-0.1719 -0.784,-0.3125 -1.18,-0.4219 -0.39,-0.1145 -0.789,-0.1718 -1.195,-0.1718 -0.474,0 -0.836,0.0729 -1.086,0.2187 -0.245,0.1458 -0.367,0.3542 -0.367,0.625 0,0.2031 0.06,0.375 0.179,0.5156 0.12,0.1407 0.326,0.2813 0.618,0.4219 0.297,0.1406 0.708,0.3151 1.234,0.5234 0.516,0.198 0.961,0.4063 1.336,0.625 0.38,0.2136 0.672,0.4766 0.875,0.7891 0.203,0.3125 0.305,0.7162 0.305,1.2109 z m 3.82,-6.17964 v 8.64844 h -1.836 V 3.3125 Z M 214.305,0 c 0.281,0 0.523,0.07552 0.726,0.22656 0.209,0.15105 0.313,0.41146 0.313,0.78126 0,0.36458 -0.104,0.625 -0.313,0.78124 -0.203,0.15105 -0.445,0.22657 -0.726,0.22657 -0.292,0 -0.539,-0.07552 -0.743,-0.22657 -0.197,-0.15624 -0.296,-0.41666 -0.296,-0.78124 0,-0.3698 0.099,-0.63021 0.296,-0.78126 C 213.766,0.07552 214.013,0 214.305,0 Z m 6.007,15.80474 c -1.171,0 -2.07,-0.211 -2.695,-0.6329 -0.625,-0.4218 -0.937,-1.013 -0.937,-1.7734 0,-0.5313 0.166,-0.9818 0.5,-1.3516 0.333,-0.3645 0.81,-0.6171 1.429,-0.7578 -0.234,-0.1041 -0.437,-0.2656 -0.609,-0.4843 -0.167,-0.224 -0.25,-0.4714 -0.25,-0.7422 0,-0.323 0.091,-0.599 0.273,-0.8282 0.183,-0.2291 0.456,-0.4505 0.821,-0.664 -0.453,-0.1927 -0.818,-0.5052 -1.094,-0.9375 -0.271,-0.4375 -0.406,-0.9505 -0.406,-1.5391 0,-0.625 0.133,-1.1562 0.398,-1.5937 0.266,-0.4427 0.654,-0.77868 1.164,-1.00785 0.511,-0.23437 1.128,-0.35156 1.852,-0.35156 0.156,0 0.325,0.01041 0.508,0.03125 0.187,0.01562 0.359,0.03646 0.515,0.0625 0.162,0.02083 0.284,0.04427 0.367,0.07031 h 2.993 v 1.02345 l -1.469,0.2734 c 0.14,0.1979 0.252,0.4245 0.336,0.6797 0.083,0.25 0.125,0.5235 0.125,0.8203 0,0.8959 -0.31,1.6016 -0.93,2.1172 -0.614,0.5104 -1.463,0.7656 -2.547,0.7656 -0.26,-0.0104 -0.513,-0.0312 -0.758,-0.0625 -0.187,0.1146 -0.33,0.2422 -0.429,0.3829 -0.099,0.1354 -0.149,0.289 -0.149,0.4609 0,0.1406 0.05,0.2552 0.149,0.3437 0.099,0.0834 0.245,0.1459 0.437,0.1875 0.198,0.0417 0.438,0.0625 0.719,0.0625 h 1.492 c 0.948,0 1.672,0.2006 2.172,0.6016 0.5,0.401 0.75,0.9896 0.75,1.7656 0,0.9844 -0.406,1.7422 -1.219,2.2735 -0.812,0.5364 -1.981,0.8047 -3.508,0.8047 z m 0.071,-1.2891 c 0.64,0 1.179,-0.0625 1.617,-0.1875 0.438,-0.125 0.768,-0.3047 0.992,-0.5391 0.224,-0.2291 0.336,-0.5026 0.336,-0.8203 0,-0.2812 -0.07,-0.4974 -0.211,-0.6484 -0.14,-0.1511 -0.351,-0.2552 -0.633,-0.3125 -0.281,-0.0573 -0.63,-0.086 -1.046,-0.086 h -1.36 c -0.338,0 -0.638,0.0521 -0.898,0.1563 -0.261,0.1094 -0.464,0.2656 -0.61,0.4687 -0.14,0.2032 -0.211,0.448 -0.211,0.7344 0,0.3958 0.175,0.7005 0.524,0.9141 0.354,0.2135 0.854,0.3203 1.5,0.3203 z m 0.359,-6.7344 c 0.537,0 0.935,-0.1458 1.196,-0.4375 0.26,-0.2969 0.39,-0.7135 0.39,-1.25 0,-0.5833 -0.135,-1.0208 -0.406,-1.3125 -0.266,-0.2917 -0.662,-0.4375 -1.188,-0.4375 -0.515,0 -0.908,0.1484 -1.179,0.4453 -0.266,0.2969 -0.399,0.737 -0.399,1.3203 0,0.5261 0.133,0.9375 0.399,1.2344 0.271,0.2917 0.666,0.4375 1.187,0.4375 z m 10.485,-4.6328 c 0.974,0 1.731,0.2526 2.273,0.75781 0.547,0.49999 0.82,1.30469 0.82,2.41409 v 5.6406 h -1.836 v -5.2969 c 0,-0.6719 -0.138,-1.1745 -0.414,-1.5078 -0.276,-0.3385 -0.703,-0.5078 -1.281,-0.5078 -0.838,0 -1.422,0.2578 -1.75,0.7734 -0.323,0.5157 -0.484,1.2631 -0.484,2.2422 v 4.2969 h -1.836 V 3.3125 h 1.429 l 0.258,1.17184 h 0.102 c 0.187,-0.302 0.419,-0.54944 0.695,-0.74215 0.281,-0.19792 0.594,-0.34635 0.938,-0.44531 0.349,-0.09896 0.711,-0.14844 1.086,-0.14844 z m 15.437,0 c 0.969,0 1.698,0.25 2.188,0.75 0.494,0.5 0.742,1.3021 0.742,2.4063 v 5.6562 h -1.836 v -5.3281 c 0,-0.6563 -0.128,-1.1511 -0.383,-1.4844 -0.255,-0.3333 -0.643,-0.5 -1.164,-0.5 -0.729,0 -1.255,0.2344 -1.578,0.7031 -0.318,0.4636 -0.477,1.138 -0.477,2.0235 v 4.5859 h -1.836 v -5.3281 c 0,-0.4375 -0.057,-0.8021 -0.172,-1.0938 -0.109,-0.2969 -0.278,-0.5182 -0.507,-0.664 -0.23,-0.1511 -0.519,-0.2266 -0.868,-0.2266 -0.505,0 -0.908,0.1146 -1.211,0.3437 -0.296,0.2292 -0.51,0.5678 -0.64,1.0157 -0.13,0.4427 -0.195,0.987 -0.195,1.6328 v 4.3203 h -1.836 V 3.3125 h 1.429 l 0.258,1.16404 h 0.102 c 0.177,-0.3021 0.396,-0.54945 0.656,-0.74216 0.266,-0.19792 0.56,-0.34375 0.883,-0.4375 0.323,-0.09896 0.659,-0.14844 1.008,-0.14844 0.645,0 1.19,0.11458 1.632,0.34375 0.443,0.22396 0.774,0.56775 0.993,1.03125 h 0.14 c 0.271,-0.4687 0.649,-0.8151 1.133,-1.03906 0.484,-0.22396 0.997,-0.33594 1.539,-0.33594 z m 8.938,0 c 0.77,0 1.432,0.15885 1.984,0.47656 0.552,0.31771 0.976,0.76824 1.273,1.35154 0.297,0.5834 0.446,1.2813 0.446,2.0938 v 0.9844 h -5.774 c 0.021,0.8385 0.245,1.4843 0.672,1.9374 0.432,0.4532 1.037,0.6797 1.813,0.6797 0.552,0 1.046,-0.052 1.484,-0.1562 0.443,-0.1094 0.898,-0.2682 1.367,-0.4766 v 1.4922 c -0.432,0.2031 -0.872,0.3516 -1.32,0.4453 -0.448,0.0938 -0.985,0.1406 -1.609,0.1406 -0.849,0 -1.597,-0.164 -2.243,-0.4921 -0.64,-0.3334 -1.143,-0.8282 -1.507,-1.4844 -0.36,-0.6563 -0.54,-1.4714 -0.54,-2.4453 0,-0.9688 0.164,-1.7917 0.493,-2.4688 0.328,-0.6771 0.789,-1.1927 1.382,-1.54685 0.594,-0.35417 1.287,-0.53125 2.079,-0.53125 z m 0,1.3828 c -0.579,0 -1.047,0.1875 -1.407,0.5625 -0.354,0.375 -0.562,0.9245 -0.625,1.6484 h 3.938 c -0.005,-0.4322 -0.078,-0.8151 -0.219,-1.1484 -0.135,-0.3333 -0.344,-0.5937 -0.625,-0.7812 -0.276,-0.1875 -0.63,-0.2813 -1.062,-0.2813 z m 10.281,-1.3828 c 0.974,0 1.732,0.2526 2.273,0.75781 0.547,0.49999 0.821,1.30469 0.821,2.41409 v 5.6406 h -1.836 v -5.2969 c 0,-0.6719 -0.138,-1.1745 -0.414,-1.5078 -0.276,-0.3385 -0.704,-0.5078 -1.282,-0.5078 -0.838,0 -1.422,0.2578 -1.75,0.7734 -0.323,0.5157 -0.484,1.2631 -0.484,2.2422 v 4.2969 h -1.836 V 3.3125 h 1.43 l 0.257,1.17184 h 0.102 c 0.188,-0.302 0.419,-0.54944 0.695,-0.74215 0.282,-0.19792 0.594,-0.34635 0.938,-0.44531 0.349,-0.09896 0.711,-0.14844 1.086,-0.14844 z m 8.883,7.4844 c 0.239,0 0.476,-0.0209 0.711,-0.0625 0.234,-0.0469 0.447,-0.1016 0.64,-0.1641 v 1.3906 c -0.203,0.0886 -0.466,0.1641 -0.789,0.2266 -0.323,0.0625 -0.659,0.0937 -1.008,0.0937 -0.489,0 -0.929,-0.0807 -1.32,-0.2421 -0.391,-0.1667 -0.701,-0.4506 -0.93,-0.8516 -0.229,-0.401 -0.343,-0.9557 -0.343,-1.6641 v -4.6484 h -1.18 V 3.89063 l 1.265,-0.64844 0.602,-1.85156 h 1.156 V 3.3125 h 2.477 v 1.39844 h -2.477 v 4.625 c 0,0.4375 0.11,0.763 0.328,0.9766 0.219,0.2135 0.508,0.3203 0.868,0.3203 z m -118.672,20.2187 c 0,0.6771 -0.167,1.2604 -0.5,1.75 -0.328,0.4896 -0.802,0.8646 -1.422,1.125 -0.615,0.2604 -1.349,0.3906 -2.203,0.3906 -0.417,0 -0.815,-0.0234 -1.196,-0.0703 -0.38,-0.0468 -0.739,-0.1145 -1.078,-0.2031 -0.333,-0.0937 -0.638,-0.2057 -0.914,-0.3359 v -1.7657 c 0.464,0.2032 0.982,0.3881 1.555,0.5547 0.573,0.1615 1.156,0.2422 1.75,0.2422 0.484,0 0.885,-0.0625 1.203,-0.1875 0.323,-0.1302 0.563,-0.3125 0.719,-0.5468 0.156,-0.2396 0.234,-0.5183 0.234,-0.836 0,-0.3385 -0.091,-0.625 -0.273,-0.8594 -0.183,-0.2343 -0.459,-0.4479 -0.828,-0.6406 -0.365,-0.1979 -0.823,-0.4088 -1.375,-0.6328 -0.375,-0.151 -0.735,-0.3229 -1.078,-0.5156 -0.339,-0.1927 -0.641,-0.4193 -0.907,-0.6797 -0.265,-0.2604 -0.476,-0.5677 -0.633,-0.9219 -0.151,-0.3594 -0.226,-0.7812 -0.226,-1.2656 0,-0.6458 0.154,-1.1979 0.461,-1.6563 0.312,-0.4583 0.75,-0.8099 1.312,-1.0547 0.568,-0.2447 1.229,-0.3671 1.985,-0.3671 0.599,0 1.161,0.0625 1.687,0.1875 0.531,0.125 1.052,0.302 1.563,0.5312 l -0.594,1.5078 c -0.469,-0.1927 -0.925,-0.3463 -1.367,-0.4609 -0.438,-0.1146 -0.886,-0.1719 -1.344,-0.1719 -0.396,0 -0.732,0.0599 -1.008,0.1797 -0.276,0.1198 -0.487,0.2891 -0.633,0.5078 -0.14,0.2136 -0.211,0.4688 -0.211,0.7656 0,0.3334 0.081,0.6146 0.243,0.8438 0.166,0.2239 0.422,0.4297 0.765,0.6172 0.349,0.1875 0.797,0.3958 1.344,0.625 0.63,0.2604 1.164,0.5338 1.602,0.8203 0.442,0.2864 0.781,0.6302 1.015,1.0312 0.235,0.3959 0.352,0.8933 0.352,1.4922 z m 5.5,3.2656 c -0.818,0 -1.526,-0.1588 -2.125,-0.4765 -0.599,-0.3177 -1.06,-0.8047 -1.383,-1.4609 -0.323,-0.6563 -0.484,-1.4896 -0.484,-2.5 0,-1.0521 0.177,-1.9115 0.531,-2.5782 0.354,-0.6666 0.844,-1.1588 1.469,-1.4765 0.63,-0.3177 1.351,-0.4766 2.164,-0.4766 0.515,0 0.981,0.0521 1.398,0.1563 0.422,0.0989 0.779,0.2213 1.07,0.3671 l -0.546,1.4688 c -0.318,-0.1302 -0.644,-0.2396 -0.977,-0.3281 -0.333,-0.0886 -0.654,-0.1328 -0.961,-0.1328 -0.505,0 -0.927,0.1119 -1.266,0.3359 -0.333,0.2239 -0.583,0.5573 -0.75,1 -0.161,0.4427 -0.242,0.9922 -0.242,1.6484 0,0.6354 0.084,1.1719 0.25,1.6094 0.167,0.4323 0.414,0.7604 0.742,0.9844 0.328,0.2187 0.732,0.3281 1.211,0.3281 0.474,0 0.899,-0.0573 1.274,-0.1719 0.375,-0.1146 0.729,-0.263 1.062,-0.4453 v 1.5938 c -0.328,0.1875 -0.679,0.3255 -1.054,0.414 -0.375,0.0938 -0.836,0.1406 -1.383,0.1406 z m 6.304,-12.3124 v 3.0546 c 0,0.3177 -0.01,0.6276 -0.031,0.9297 -0.015,0.3021 -0.034,0.5365 -0.055,0.7031 h 0.102 c 0.182,-0.302 0.406,-0.5494 0.672,-0.7421 0.266,-0.198 0.562,-0.3464 0.891,-0.4453 0.333,-0.099 0.687,-0.1485 1.062,-0.1485 0.662,0 1.224,0.112 1.688,0.3359 0.463,0.2188 0.817,0.5599 1.062,1.0235 0.25,0.4635 0.375,1.0651 0.375,1.8047 v 5.6406 h -1.836 v -5.2969 c 0,-0.6719 -0.138,-1.1745 -0.414,-1.5078 -0.276,-0.3385 -0.703,-0.5078 -1.281,-0.5078 -0.557,0 -1,0.1172 -1.328,0.3516 -0.323,0.2291 -0.555,0.5703 -0.696,1.0234 -0.14,0.4479 -0.211,0.9948 -0.211,1.6406 v 4.2969 h -1.836 v -12.1562 z m 11.782,3.3437 c 0.771,0 1.432,0.1589 1.984,0.4766 0.552,0.3177 0.977,0.7682 1.274,1.3515 0.296,0.5834 0.445,1.2813 0.445,2.0938 v 0.9844 h -5.774 c 0.021,0.8385 0.245,1.4843 0.672,1.9374 0.433,0.4532 1.037,0.6797 1.813,0.6797 0.552,0 1.047,-0.052 1.484,-0.1562 0.443,-0.1094 0.899,-0.2682 1.367,-0.4766 v 1.4922 c -0.432,0.2031 -0.872,0.3516 -1.32,0.4453 -0.448,0.0938 -0.984,0.1406 -1.609,0.1406 -0.849,0 -1.597,-0.164 -2.243,-0.4921 -0.64,-0.3334 -1.143,-0.8282 -1.507,-1.4844 -0.36,-0.6563 -0.539,-1.4714 -0.539,-2.4453 0,-0.9688 0.164,-1.7917 0.492,-2.4688 0.328,-0.6771 0.789,-1.1927 1.383,-1.5468 0.593,-0.3542 1.286,-0.5313 2.078,-0.5313 z m 0,1.3828 c -0.578,0 -1.047,0.1875 -1.407,0.5625 -0.354,0.375 -0.562,0.9245 -0.625,1.6484 h 3.938 c -0.005,-0.4322 -0.078,-0.8151 -0.219,-1.1484 -0.135,-0.3333 -0.344,-0.5937 -0.625,-0.7812 -0.276,-0.1875 -0.63,-0.2813 -1.062,-0.2813 z m 8.679,7.5859 c -1.031,0 -1.859,-0.375 -2.484,-1.125 -0.62,-0.7552 -0.93,-1.8671 -0.93,-3.3359 0,-1.4844 0.315,-2.6068 0.946,-3.3672 0.635,-0.7604 1.471,-1.1406 2.507,-1.1406 0.438,0 0.821,0.0599 1.149,0.1797 0.328,0.1146 0.609,0.2708 0.844,0.4687 0.239,0.198 0.442,0.4193 0.609,0.6641 h 0.086 c -0.026,-0.1615 -0.057,-0.3932 -0.094,-0.6953 -0.031,-0.3073 -0.047,-0.5912 -0.047,-0.8516 v -3.1093 h 1.844 v 12.1562 h -1.437 l -0.329,-1.1797 h -0.078 c -0.156,0.25 -0.354,0.4766 -0.593,0.6797 -0.235,0.1979 -0.516,0.3568 -0.844,0.4766 -0.323,0.1198 -0.706,0.1796 -1.149,0.1796 z m 0.516,-1.4921 c 0.786,0 1.341,-0.2266 1.664,-0.6797 0.323,-0.4532 0.49,-1.1328 0.5,-2.0391 v -0.2422 c 0,-0.9687 -0.156,-1.7109 -0.469,-2.2265 -0.312,-0.5209 -0.882,-0.7813 -1.711,-0.7813 -0.661,0 -1.166,0.2682 -1.515,0.8047 -0.344,0.5312 -0.516,1.2734 -0.516,2.2266 0,0.9531 0.172,1.6823 0.516,2.1875 0.349,0.5 0.859,0.75 1.531,0.75 z m 14.086,-7.3125 v 8.6484 h -1.445 l -0.25,-1.1641 h -0.102 c -0.182,0.2969 -0.414,0.5443 -0.695,0.7422 -0.281,0.1927 -0.594,0.336 -0.938,0.4297 -0.343,0.099 -0.705,0.1484 -1.086,0.1484 -0.651,0 -1.208,-0.1093 -1.672,-0.3281 -0.458,-0.2239 -0.809,-0.5677 -1.054,-1.0312 -0.245,-0.4636 -0.367,-1.0625 -0.367,-1.7969 v -5.6484 h 1.843 v 5.3046 c 0,0.6719 0.136,1.1745 0.407,1.5079 0.276,0.3333 0.703,0.5 1.281,0.5 0.557,0 1,-0.1146 1.328,-0.3438 0.328,-0.2292 0.56,-0.5677 0.695,-1.0156 0.141,-0.4479 0.211,-0.9974 0.211,-1.6485 v -4.3046 z m 4.477,8.6484 h -1.844 v -12.1562 h 1.844 z m 4.46,-8.6484 v 8.6484 h -1.836 v -8.6484 z m -0.906,-3.3125 c 0.281,0 0.524,0.0755 0.727,0.2265 0.208,0.1511 0.312,0.4115 0.312,0.7813 0,0.3646 -0.104,0.625 -0.312,0.7812 -0.203,0.1511 -0.446,0.2266 -0.727,0.2266 -0.291,0 -0.539,-0.0755 -0.742,-0.2266 -0.198,-0.1562 -0.297,-0.4166 -0.297,-0.7812 0,-0.3698 0.099,-0.6302 0.297,-0.7813 0.203,-0.151 0.451,-0.2265 0.742,-0.2265 z m 8.047,3.1484 c 0.974,0 1.732,0.2526 2.273,0.7578 0.547,0.5 0.821,1.3047 0.821,2.4141 v 5.6406 h -1.836 v -5.2969 c 0,-0.6719 -0.138,-1.1745 -0.414,-1.5078 -0.276,-0.3385 -0.703,-0.5078 -1.281,-0.5078 -0.839,0 -1.422,0.2578 -1.75,0.7734 -0.323,0.5157 -0.485,1.2631 -0.485,2.2422 v 4.2969 h -1.836 v -8.6484 h 1.43 l 0.258,1.1718 h 0.101 c 0.188,-0.302 0.42,-0.5494 0.696,-0.7422 0.281,-0.1979 0.593,-0.3463 0.937,-0.4453 0.349,-0.0989 0.711,-0.1484 1.086,-0.1484 z m 8.133,12.6563 c -1.172,0 -2.07,-0.211 -2.695,-0.6329 -0.625,-0.4218 -0.938,-1.013 -0.938,-1.7734 0,-0.5313 0.167,-0.9818 0.5,-1.3516 0.333,-0.3645 0.81,-0.6171 1.43,-0.7578 -0.235,-0.1041 -0.438,-0.2656 -0.61,-0.4843 -0.166,-0.224 -0.25,-0.4714 -0.25,-0.7422 0,-0.323 0.092,-0.599 0.274,-0.8282 0.182,-0.2291 0.456,-0.4505 0.82,-0.664 -0.453,-0.1927 -0.818,-0.5052 -1.094,-0.9375 -0.27,-0.4375 -0.406,-0.9505 -0.406,-1.5391 0,-0.625 0.133,-1.1562 0.399,-1.5937 0.265,-0.4427 0.653,-0.7787 1.164,-1.0079 0.51,-0.2343 1.127,-0.3515 1.851,-0.3515 0.156,0 0.326,0.0104 0.508,0.0312 0.187,0.0157 0.359,0.0365 0.516,0.0625 0.161,0.0209 0.283,0.0443 0.367,0.0704 H 232 v 1.0234 l -1.469,0.2734 c 0.141,0.1979 0.253,0.4245 0.336,0.6797 0.084,0.25 0.125,0.5235 0.125,0.8203 0,0.8959 -0.31,1.6016 -0.93,2.1172 -0.614,0.5104 -1.463,0.7656 -2.546,0.7656 -0.261,-0.0104 -0.513,-0.0312 -0.758,-0.0625 -0.188,0.1146 -0.331,0.2422 -0.43,0.3829 -0.099,0.1354 -0.148,0.289 -0.148,0.4609 0,0.1406 0.049,0.2552 0.148,0.3437 0.099,0.0834 0.245,0.1459 0.438,0.1875 0.198,0.0417 0.437,0.0625 0.718,0.0625 h 1.493 c 0.947,0 1.671,0.2006 2.171,0.6016 0.5,0.401 0.75,0.9896 0.75,1.7656 0,0.9844 -0.406,1.7422 -1.218,2.2735 -0.813,0.5364 -1.982,0.8047 -3.508,0.8047 z m 0.07,-1.2891 c 0.641,0 1.18,-0.0625 1.617,-0.1875 0.438,-0.125 0.769,-0.3047 0.993,-0.5391 0.224,-0.2291 0.336,-0.5026 0.336,-0.8203 0,-0.2812 -0.071,-0.4974 -0.211,-0.6484 -0.141,-0.1511 -0.352,-0.2552 -0.633,-0.3125 -0.282,-0.0573 -0.63,-0.086 -1.047,-0.086 h -1.359 c -0.339,0 -0.639,0.0521 -0.899,0.1563 -0.26,0.1094 -0.463,0.2656 -0.609,0.4687 -0.141,0.2032 -0.211,0.448 -0.211,0.7344 0,0.3958 0.174,0.7005 0.523,0.9141 0.354,0.2135 0.854,0.3203 1.5,0.3203 z m 0.36,-6.7344 c 0.536,0 0.934,-0.1458 1.195,-0.4375 0.26,-0.2969 0.391,-0.7135 0.391,-1.25 0,-0.5833 -0.136,-1.0208 -0.407,-1.3125 -0.265,-0.2917 -0.661,-0.4375 -1.187,-0.4375 -0.516,0 -0.909,0.1484 -1.18,0.4453 -0.266,0.2969 -0.398,0.737 -0.398,1.3203 0,0.5261 0.132,0.9375 0.398,1.2344 0.271,0.2917 0.667,0.4375 1.188,0.4375 z m 16.914,1.0703 c 0,0.6771 -0.167,1.2604 -0.5,1.75 -0.328,0.4896 -0.802,0.8646 -1.422,1.125 -0.615,0.2604 -1.349,0.3906 -2.203,0.3906 -0.417,0 -0.815,-0.0234 -1.196,-0.0703 -0.38,-0.0468 -0.739,-0.1145 -1.078,-0.2031 -0.333,-0.0937 -0.638,-0.2057 -0.914,-0.3359 v -1.7657 c 0.464,0.2032 0.982,0.3881 1.555,0.5547 0.573,0.1615 1.156,0.2422 1.75,0.2422 0.484,0 0.885,-0.0625 1.203,-0.1875 0.323,-0.1302 0.562,-0.3125 0.719,-0.5468 0.156,-0.2396 0.234,-0.5183 0.234,-0.836 0,-0.3385 -0.091,-0.625 -0.273,-0.8594 -0.183,-0.2343 -0.459,-0.4479 -0.829,-0.6406 -0.364,-0.1979 -0.822,-0.4088 -1.374,-0.6328 -0.376,-0.151 -0.735,-0.3229 -1.079,-0.5156 -0.338,-0.1927 -0.64,-0.4193 -0.906,-0.6797 -0.265,-0.2604 -0.476,-0.5677 -0.633,-0.9219 -0.151,-0.3594 -0.226,-0.7812 -0.226,-1.2656 0,-0.6458 0.153,-1.1979 0.461,-1.6563 0.312,-0.4583 0.75,-0.8099 1.312,-1.0547 0.568,-0.2447 1.229,-0.3671 1.985,-0.3671 0.599,0 1.161,0.0625 1.687,0.1875 0.531,0.125 1.052,0.302 1.563,0.5312 l -0.594,1.5078 c -0.469,-0.1927 -0.925,-0.3463 -1.367,-0.4609 -0.438,-0.1146 -0.886,-0.1719 -1.344,-0.1719 -0.396,0 -0.732,0.0599 -1.008,0.1797 -0.276,0.1198 -0.487,0.2891 -0.633,0.5078 -0.14,0.2136 -0.211,0.4688 -0.211,0.7656 0,0.3334 0.081,0.6146 0.243,0.8438 0.166,0.2239 0.421,0.4297 0.765,0.6172 0.349,0.1875 0.797,0.3958 1.344,0.625 0.63,0.2604 1.164,0.5338 1.601,0.8203 0.443,0.2864 0.782,0.6302 1.016,1.0312 0.234,0.3959 0.352,0.8933 0.352,1.4922 z m 0.711,-5.539 h 2 l 1.773,4.9375 c 0.078,0.2239 0.148,0.4453 0.211,0.664 0.068,0.2136 0.125,0.4245 0.172,0.6328 0.052,0.2084 0.094,0.4167 0.125,0.625 h 0.047 c 0.052,-0.2708 0.125,-0.5729 0.218,-0.9062 0.099,-0.3386 0.209,-0.6771 0.329,-1.0156 l 1.703,-4.9375 h 1.976 l -3.711,9.8359 c -0.213,0.5625 -0.476,1.0417 -0.789,1.4375 -0.307,0.401 -0.672,0.7031 -1.093,0.9062 -0.422,0.2084 -0.904,0.3126 -1.446,0.3126 -0.26,0 -0.487,-0.0157 -0.68,-0.0469 -0.192,-0.0261 -0.356,-0.0547 -0.492,-0.086 v -1.4687 c 0.11,0.026 0.248,0.0495 0.414,0.0703 0.167,0.0208 0.339,0.0313 0.516,0.0313 0.328,0 0.612,-0.0652 0.852,-0.1954 0.239,-0.1302 0.442,-0.3151 0.609,-0.5546 0.167,-0.2344 0.305,-0.5027 0.414,-0.8047 l 0.305,-0.8125 z m 15.679,6.1796 c 0,0.5678 -0.138,1.0469 -0.414,1.4376 -0.276,0.3906 -0.68,0.6874 -1.211,0.8906 -0.526,0.1979 -1.172,0.2968 -1.937,0.2968 -0.604,0 -1.125,-0.0442 -1.563,-0.1328 -0.432,-0.0833 -0.841,-0.2135 -1.226,-0.3906 v -1.5859 c 0.411,0.1927 0.872,0.3593 1.383,0.5 0.515,0.1406 1.002,0.2109 1.46,0.2109 0.605,0 1.04,-0.0937 1.305,-0.2812 0.266,-0.1927 0.399,-0.448 0.399,-0.7657 0,-0.1875 -0.055,-0.3541 -0.164,-0.5 -0.105,-0.151 -0.303,-0.3047 -0.594,-0.4609 -0.287,-0.1615 -0.709,-0.3542 -1.266,-0.5781 -0.547,-0.2188 -1.008,-0.4375 -1.383,-0.6563 -0.375,-0.2187 -0.659,-0.4817 -0.851,-0.789 -0.193,-0.3125 -0.289,-0.711 -0.289,-1.1954 0,-0.7656 0.302,-1.3463 0.906,-1.7421 0.609,-0.4011 1.414,-0.6016 2.414,-0.6016 0.531,0 1.031,0.0547 1.5,0.1641 0.474,0.1041 0.937,0.2578 1.391,0.4609 l -0.578,1.3828 c -0.391,-0.1719 -0.784,-0.3125 -1.18,-0.4219 -0.391,-0.1145 -0.789,-0.1718 -1.196,-0.1718 -0.473,0 -0.835,0.0729 -1.085,0.2187 -0.245,0.1458 -0.368,0.3542 -0.368,0.625 0,0.2031 0.06,0.375 0.18,0.5156 0.12,0.1407 0.326,0.2813 0.617,0.4219 0.297,0.1406 0.709,0.3151 1.235,0.5234 0.515,0.198 0.961,0.4063 1.336,0.625 0.38,0.2136 0.671,0.4766 0.875,0.7891 0.203,0.3125 0.304,0.7162 0.304,1.2109 z m 5.203,1.1407 c 0.24,0 0.477,-0.0209 0.711,-0.0625 0.235,-0.0469 0.448,-0.1016 0.641,-0.1641 v 1.3906 c -0.203,0.0886 -0.466,0.1641 -0.789,0.2266 -0.323,0.0625 -0.659,0.0937 -1.008,0.0937 -0.49,0 -0.93,-0.0807 -1.32,-0.2421 -0.391,-0.1667 -0.701,-0.4506 -0.93,-0.8516 -0.229,-0.401 -0.344,-0.9557 -0.344,-1.6641 v -4.6484 h -1.179 v -0.8203 l 1.265,-0.6485 0.602,-1.8515 h 1.156 v 1.9219 h 2.477 v 1.3984 h -2.477 v 4.625 c 0,0.4375 0.109,0.763 0.328,0.9766 0.219,0.2135 0.508,0.3203 0.867,0.3203 z m 6.555,-7.4844 c 0.771,0 1.432,0.1589 1.984,0.4766 0.553,0.3177 0.977,0.7682 1.274,1.3515 0.297,0.5834 0.445,1.2813 0.445,2.0938 v 0.9844 h -5.773 c 0.021,0.8385 0.245,1.4843 0.672,1.9374 0.432,0.4532 1.036,0.6797 1.812,0.6797 0.552,0 1.047,-0.052 1.484,-0.1562 0.443,-0.1094 0.899,-0.2682 1.368,-0.4766 v 1.4922 c -0.433,0.2031 -0.873,0.3516 -1.321,0.4453 -0.448,0.0938 -0.984,0.1406 -1.609,0.1406 -0.849,0 -1.596,-0.164 -2.242,-0.4921 -0.641,-0.3334 -1.143,-0.8282 -1.508,-1.4844 -0.359,-0.6563 -0.539,-1.4714 -0.539,-2.4453 0,-0.9688 0.164,-1.7917 0.492,-2.4688 0.328,-0.6771 0.789,-1.1927 1.383,-1.5468 0.594,-0.3542 1.286,-0.5313 2.078,-0.5313 z m 0,1.3828 c -0.578,0 -1.047,0.1875 -1.406,0.5625 -0.354,0.375 -0.563,0.9245 -0.625,1.6484 h 3.937 c -0.005,-0.4322 -0.078,-0.8151 -0.218,-1.1484 -0.136,-0.3333 -0.344,-0.5937 -0.625,-0.7812 -0.276,-0.1875 -0.631,-0.2813 -1.063,-0.2813 z m 15.547,-1.3828 c 0.969,0 1.698,0.25 2.187,0.75 0.495,0.5 0.743,1.3021 0.743,2.4063 v 5.6562 h -1.836 v -5.3281 c 0,-0.6563 -0.128,-1.1511 -0.383,-1.4844 -0.255,-0.3333 -0.643,-0.5 -1.164,-0.5 -0.729,0 -1.255,0.2344 -1.578,0.7031 -0.318,0.4636 -0.477,1.138 -0.477,2.0235 v 4.5859 h -1.836 v -5.3281 c 0,-0.4375 -0.057,-0.8021 -0.172,-1.0938 -0.109,-0.2969 -0.278,-0.5182 -0.507,-0.664 -0.23,-0.1511 -0.519,-0.2266 -0.868,-0.2266 -0.505,0 -0.909,0.1146 -1.211,0.3437 -0.297,0.2292 -0.51,0.5678 -0.64,1.0157 -0.13,0.4427 -0.196,0.987 -0.196,1.6328 v 4.3203 h -1.835 v -8.6484 h 1.429 l 0.258,1.164 h 0.102 c 0.177,-0.3021 0.395,-0.5495 0.656,-0.7422 0.265,-0.1979 0.56,-0.3437 0.883,-0.4375 0.323,-0.0989 0.658,-0.1484 1.007,-0.1484 0.646,0 1.191,0.1146 1.633,0.3437 0.443,0.224 0.774,0.5678 0.992,1.0313 h 0.141 c 0.271,-0.4687 0.649,-0.8151 1.133,-1.0391 0.484,-0.2239 0.997,-0.3359 1.539,-0.3359 z"
     fill="#ffffff"
     id="path4" />
  <rect
     x="0"
     y="5.9609399"
     width="40"
     height="30"
     rx="6"
     fill="#ffffff"
     id="rect6" />
  <rect
     x="9.5"
     y="2.4609399"
     width="6"
     height="8"
     rx="3"
     fill="#bd5334"
     stroke="#ffffff"
     id="rect8" />
  <rect
     x="24.5"
     y="2.4609399"
     width="6"
     height="8"
     rx="3"
     fill="#bd5334"
     stroke="#ffffff"
     id="rect10" />
  <path
     d="m 25.8669,16.91494 c 0,3.288 -2.665,5.953 -5.953,5.953 -3.288,0 -5.953,-2.665 -5.953,-5.953 0,-3.288 2.665,-5.954 5.953,-5.954 3.288,0 5.953,2.666 5.953,5.954"
     fill="#bd5334"
     id="path12" />
  <path
     d="m 25.3663,22.10154 c -1.3731,1.4414 -3.3076,2.3418 -5.4513,2.3418 -2.1426,0 -4.078,-0.9004 -5.4513,-2.3418 -2.1064,0.8467 -3.4637,2.1709 -3.4637,3.6613 0,2.5557 3.9912,6.2977 8.914,6.2977 4.9237,0 8.914,-3.7422 8.914,-6.2977 0.001,-1.4902 -1.3564,-2.8145 -3.462,-3.6613 z"
     fill="#bd5334"
     id="path14" />
</svg>
