<?xml version="1.0" encoding="UTF-8" standalone="no"?>
<svg
   width="221.592"
   height="34"
   viewBox="0 0 221.592 34"
   fill="none"
   version="1.1"
   id="svg14"
   sodipodi:docname="logo.svg"
   inkscape:version="1.2.1 (9c6d41e410, 2022-07-14, custom)"
   xmlns:inkscape="http://www.inkscape.org/namespaces/inkscape"
   xmlns:sodipodi="http://sodipodi.sourceforge.net/DTD/sodipodi-0.dtd"
   xmlns="http://www.w3.org/2000/svg"
   xmlns:svg="http://www.w3.org/2000/svg">
  <defs
     id="defs18" />
  <sodipodi:namedview
     id="namedview16"
     pagecolor="#505050"
     bordercolor="#ffffff"
     borderopacity="1"
     inkscape:showpageshadow="0"
     inkscape:pageopacity="0"
     inkscape:pagecheckerboard="1"
     inkscape:deskcolor="#505050"
     showgrid="false"
     inkscape:zoom="5.5965665"
     inkscape:cx="116.58934"
     inkscape:cy="13.669095"
     inkscape:window-width="5120"
     inkscape:window-height="1372"
     inkscape:window-x="1080"
     inkscape:window-y="240"
     inkscape:window-maximized="1"
     inkscape:current-layer="svg14" />
  <path
     d="m 49.6426,32 h -4.043 c -0.1172,0 -0.1758,-0.0586 -0.1758,-0.1758 L 45.4941,7.0918 c 0,-0.0938 0.0469,-0.1406 0.1407,-0.1406 H 57.166 c 0.1172,0 0.1758,0.0468 0.1758,0.1406 v 4.0605 c 0,0.0938 -0.0469,0.1407 -0.1406,0.1407 h -7.3828 v 5.5898 h 7.3828 c 0.0937,0 0.1406,0.0586 0.1406,0.1758 l 0.0352,4.0781 c 0,0.0938 -0.0586,0.1406 -0.1758,0.1406 H 49.8184 V 31.8242 C 49.8184,31.9414 49.7598,32 49.6426,32 Z m 22.7109,0 H 60.7168 C 60.623,32 60.5762,31.9414 60.5762,31.8242 L 60.6113,7.127 c 0,-0.1172 0.0586,-0.1758 0.1758,-0.1758 h 4.0078 c 0.1172,0 0.1758,0.0586 0.1758,0.1758 l -0.0352,20.4433 h 7.418 c 0.1172,0 0.1758,0.0586 0.1758,0.1758 v 4.0781 C 72.5293,31.9414 72.4707,32 72.3535,32 Z m 6.7852,0 h -4.0782 c -0.1171,0 -0.1757,-0.0586 -0.1757,-0.1758 L 74.9199,7.0918 c 0,-0.0938 0.0469,-0.1406 0.1406,-0.1406 h 4.043 c 0.0938,0 0.1406,0.0468 0.1406,0.1406 l 0.0352,24.7324 C 79.2793,31.9414 79.2324,32 79.1387,32 Z m 9.8965,0.3516 c -1.3008,0 -2.4727,-0.3223 -3.5157,-0.9668 C 84.4648,30.7402 83.6152,29.873 82.9707,28.7832 82.3379,27.6934 82.0215,26.4746 82.0215,25.127 V 13.7188 c 0,-1.3126 0.3223,-2.5079 0.9668,-3.586 0.6328,-1.0898 1.4824,-1.957 2.5488,-2.6016 1.0664,-0.6562 2.2324,-0.9843 3.4981,-0.9843 1.3242,0 2.5195,0.3164 3.5859,0.9492 1.0664,0.6445 1.9101,1.5059 2.5312,2.584 0.6329,1.0781 0.9493,2.291 0.9493,3.6387 v 1.6523 c 0,0.0937 -0.0586,0.1406 -0.1758,0.1406 h -4.043 c -0.0937,0 -0.1406,-0.0469 -0.1406,-0.1406 V 14 c 0,-0.9141 -0.2578,-1.6699 -0.7734,-2.2676 -0.5157,-0.5976 -1.1602,-0.8965 -1.9336,-0.8965 -0.6914,0 -1.3067,0.2871 -1.8457,0.8614 -0.5391,0.5742 -0.8086,1.248 -0.8086,2.0215 V 25.127 c 0,0.7851 0.2636,1.4648 0.791,2.039 0.5273,0.5625 1.1484,0.8438 1.8633,0.8438 0.7734,0 1.4179,-0.2754 1.9336,-0.8262 0.5156,-0.5625 0.7734,-1.2481 0.7734,-2.0566 v -1.7754 h -2.5137 c -0.1289,0 -0.1933,-0.0586 -0.1933,-0.1758 v -4.0254 c 0,-0.1172 0.0644,-0.1758 0.1933,-0.1758 h 6.7324 c 0.0938,0 0.1407,0.0586 0.1407,0.1758 v 5.9766 c 0,1.3476 -0.3164,2.5664 -0.9493,3.6562 -0.6445,1.0898 -1.4941,1.957 -2.5488,2.6016 -1.0547,0.6445 -2.2441,0.9668 -3.5683,0.9668 z M 102.869,32 h -4.078 c -0.0937,0 -0.1406,-0.0586 -0.1406,-0.1758 L 98.6855,7.0918 c 0,-0.0938 0.0586,-0.1406 0.1758,-0.1406 h 4.0077 c 0.117,0 0.176,0.0468 0.176,0.1406 l -0.035,9.791 h 5.396 v -9.791 c 0,-0.0938 0.047,-0.1406 0.141,-0.1406 h 4.008 c 0.117,0 0.175,0.0468 0.175,0.1406 l 0.071,24.7324 c 0,0.1172 -0.059,0.1758 -0.176,0.1758 h -4.043 c -0.117,0 -0.176,-0.0586 -0.176,-0.1758 v -10.582 h -5.396 v 10.582 c 0,0.1172 -0.047,0.1758 -0.141,0.1758 z m 20.549,0 h -4.061 c -0.105,0 -0.158,-0.0586 -0.158,-0.1758 V 11.293 h -4.676 c -0.117,0 -0.175,-0.0586 -0.175,-0.1758 l 0.035,-4.0254 c 0,-0.0938 0.047,-0.1406 0.14,-0.1406 h 13.676 c 0.129,0 0.194,0.0468 0.194,0.1406 v 4.0254 c 0,0.1172 -0.047,0.1758 -0.141,0.1758 h -4.729 l 0.036,20.5312 c 0,0.1172 -0.047,0.1758 -0.141,0.1758 z m 12.621,0.3516 c -1.301,0 -2.49,-0.3282 -3.568,-0.9844 -1.067,-0.6563 -1.916,-1.5352 -2.549,-2.6367 -0.621,-1.1133 -0.932,-2.3496 -0.932,-3.709 l 0.035,-11.2324 c 0,-1.336 0.305,-2.543 0.914,-3.6211 0.61,-1.0899 1.448,-1.9629 2.514,-2.6192 1.078,-0.6679 2.274,-1.0019 3.586,-1.0019 1.336,0 2.525,0.3222 3.568,0.9668 1.055,0.6445 1.893,1.5175 2.514,2.6191 0.633,1.0899 0.949,2.3086 0.949,3.6563 v 1.6523 c 0,0.0938 -0.047,0.1406 -0.14,0.1406 h -4.043 c -0.094,0 -0.141,-0.0468 -0.141,-0.1406 v -1.6523 c 0,-0.7969 -0.258,-1.4825 -0.773,-2.0567 -0.516,-0.5742 -1.161,-0.8613 -1.934,-0.8613 -0.855,0 -1.512,0.293 -1.969,0.8789 -0.457,0.5859 -0.685,1.2656 -0.685,2.0391 v 11.2324 c 0,0.8789 0.258,1.5996 0.773,2.1621 0.516,0.5508 1.143,0.8262 1.881,0.8262 0.773,0 1.418,-0.3047 1.934,-0.9141 0.515,-0.6211 0.773,-1.3125 0.773,-2.0742 v -1.6699 c 0,-0.0938 0.047,-0.1407 0.141,-0.1407 h 4.078 c 0.094,0 0.14,0.0469 0.14,0.1407 v 1.6699 c 0,1.3476 -0.316,2.5781 -0.949,3.6914 -0.644,1.1016 -1.494,1.9863 -2.549,2.6543 -1.054,0.6562 -2.244,0.9844 -3.568,0.9844 z M 149.943,32 h -4.078 c -0.094,0 -0.14,-0.0586 -0.14,-0.1758 L 145.76,7.0918 c 0,-0.0938 0.058,-0.1406 0.176,-0.1406 h 4.007 c 0.118,0 0.176,0.0468 0.176,0.1406 l -0.035,9.791 h 5.396 v -9.791 c 0,-0.0938 0.047,-0.1406 0.141,-0.1406 h 4.008 c 0.117,0 0.176,0.0468 0.176,0.1406 l 0.07,24.7324 c 0,0.1172 -0.059,0.1758 -0.176,0.1758 h -4.043 c -0.117,0 -0.176,-0.0586 -0.176,-0.1758 v -10.582 h -5.396 v 10.582 c 0,0.1172 -0.047,0.1758 -0.141,0.1758 z m 17.121,0 h -4.078 c -0.117,0 -0.175,-0.0586 -0.175,-0.1758 l 0.035,-24.7324 c 0,-0.0938 0.047,-0.1406 0.14,-0.1406 h 4.043 c 0.094,0 0.141,0.0468 0.141,0.1406 l 0.035,24.7324 c 0,0.1172 -0.047,0.1758 -0.141,0.1758 z m 15.082,0 H 170.51 c -0.094,0 -0.141,-0.0586 -0.141,-0.1758 l 0.035,-24.7324 c 0,-0.0938 0.047,-0.1406 0.141,-0.1406 h 11.566 c 0.094,0 0.141,0.0586 0.141,0.1758 v 4.0253 c 0,0.0938 -0.047,0.1407 -0.141,0.1407 h -7.382 v 5.625 h 7.382 c 0.094,0 0.141,0.0468 0.141,0.1406 l 0.035,4.0781 c 0,0.0938 -0.047,0.1406 -0.141,0.1406 h -7.417 v 6.293 h 7.417 c 0.094,0 0.141,0.0586 0.141,0.1758 v 4.1133 c 0,0.0937 -0.047,0.1406 -0.141,0.1406 z m 7.559,0 h -4.043 c -0.117,0 -0.176,-0.0586 -0.176,-0.1758 l 0.071,-24.7324 c 0,-0.0938 0.047,-0.1406 0.14,-0.1406 h 11.532 c 0.117,0 0.175,0.0468 0.175,0.1406 v 4.0605 c 0,0.0938 -0.047,0.1407 -0.14,0.1407 h -7.383 v 5.5898 h 7.383 c 0.093,0 0.14,0.0586 0.14,0.1758 l 0.035,4.0781 c 0,0.0938 -0.058,0.1406 -0.175,0.1406 h -7.383 v 10.5469 c 0,0.1172 -0.059,0.1758 -0.176,0.1758 z"
     fill="#ffffff"
     id="path2" />
  <path
     d="m 207.266,32.3516 c -1.266,0 -2.438,-0.3282 -3.516,-0.9844 -1.078,-0.6563 -1.939,-1.5352 -2.584,-2.6367 -0.633,-1.1133 -0.949,-2.3262 -0.949,-3.6387 l 0.07,-18 c 0,-0.0938 0.047,-0.1406 0.141,-0.1406 h 4.043 c 0.093,0 0.14,0.0468 0.14,0.1406 v 18 c 0,0.8086 0.258,1.5 0.774,2.0742 0.515,0.5625 1.142,0.8438 1.881,0.8438 0.773,0 1.418,-0.2813 1.933,-0.8438 0.516,-0.5742 0.774,-1.2656 0.774,-2.0742 v -18 c 0,-0.0938 0.047,-0.1406 0.14,-0.1406 h 4.043 c 0.094,0 0.141,0.0468 0.141,0.1406 l 0.07,18 c 0,1.3242 -0.316,2.543 -0.949,3.6562 -0.645,1.1016 -1.5,1.9805 -2.566,2.6368 -1.067,0.6445 -2.262,0.9668 -3.586,0.9668 z M 221.451,32 h -4.078 c -0.117,0 -0.176,-0.0586 -0.176,-0.1758 l 0.035,-24.7324 c 0,-0.0938 0.047,-0.1406 0.141,-0.1406 h 4.043 c 0.094,0 0.141,0.0468 0.141,0.1406 l 0.035,24.7324 c 0,0.1172 -0.047,0.1758 -0.141,0.1758 z"
     fill="#bd5334"
     id="path4" />
  <rect
     y="4"
     width="40"
     height="30"
     rx="6"
     fill="#ffffff"
     id="rect6"
     x="0" />
  <rect
     x="9.5"
     y="0.5"
     width="6"
     height="8"
     rx="3"
     fill="#bd5334"
     stroke="#ffffff"
     id="rect8" />
  <rect
     x="24.5"
     y="0.5"
     width="6"
     height="8"
     rx="3"
     fill="#bd5334"
     stroke="#ffffff"
     id="rect10" />
  <path
     d="m 21.696,24.728 c 0,0.1813 -0.544,0.272 -1.632,0.272 -1.0773,0 -1.616,-0.0907 -1.616,-0.272 V 16.84 l -1.728,0.016 c -0.32,0 -0.48,-0.512 -0.48,-1.536 0,-0.352 0.032,-0.6933 0.096,-1.024 0.0747,-0.3307 0.1973,-0.496 0.368,-0.496 h 4.384 c 0.1813,0 0.3253,0.0427 0.432,0.128 0.1173,0.0747 0.176,0.1707 0.176,0.288 z"
     fill="#bd5334"
     id="path12" />
</svg>
