<?xml version="1.0" encoding="UTF-8" standalone="no"?>
<svg
   width="133.69299"
   height="34"
   viewBox="0 0 133.69299 34"
   fill="none"
   version="1.1"
   id="svg14"
   xmlns="http://www.w3.org/2000/svg"
   xmlnsSvg="http://www.w3.org/2000/svg">
  <defs
     id="defs18" />
  <path
     d="m 59.4434,4.3008 c 3.3164,0 5.7363,0.7148 7.2597,2.1445 1.5235,1.418 2.2852,3.375 2.2852,5.8711 0,1.125 -0.1699,2.2031 -0.5098,3.2344 -0.3398,1.0195 -0.8965,1.9277 -1.6699,2.7246 -0.7617,0.7969 -1.7813,1.4297 -3.0586,1.8984 -1.2773,0.4571 -2.8535,0.6856 -4.7285,0.6856 H 56.6836 V 30 H 51.2344 V 4.3008 Z m -0.2813,4.4648 h -2.4785 v 7.6289 h 1.793 c 1.0195,0 1.9043,-0.1347 2.6543,-0.4043 0.75,-0.2695 1.33,-0.6914 1.7402,-1.2656 0.4101,-0.5742 0.6152,-1.3125 0.6152,-2.2148 0,-1.2657 -0.3515,-2.2032 -1.0547,-2.8125 C 61.7285,9.0762 60.6387,8.7656 59.1621,8.7656 Z M 89.5723,30 87.709,23.8828 H 78.3398 L 76.4766,30 H 70.6055 L 79.6758,4.1953 h 6.6621 L 95.443,30 Z M 86.4082,19.3125 84.5449,13.3359 C 84.4277,12.9375 84.2695,12.4277 84.0703,11.8066 83.8828,11.1738 83.6895,10.5352 83.4902,9.8906 83.3027,9.2344 83.1504,8.666 83.0332,8.1855 82.916,8.666 82.752,9.2637 82.541,9.9785 c -0.1992,0.7031 -0.3926,1.3711 -0.5801,2.0039 -0.1875,0.6328 -0.3222,1.084 -0.4043,1.3535 l -1.8457,5.9766 z m 27.4568,3.5508 c 0,1.5234 -0.369,2.8476 -1.107,3.9726 -0.738,1.125 -1.817,1.9922 -3.235,2.6016 -1.406,0.6094 -3.117,0.9141 -5.132,0.9141 -0.891,0 -1.764,-0.0586 -2.62,-0.1758 -0.843,-0.1172 -1.658,-0.2871 -2.443,-0.5098 -0.773,-0.2344 -1.512,-0.5215 -2.215,-0.8613 v -5.0625 c 1.219,0.539 2.485,1.0254 3.797,1.459 1.313,0.4336 2.613,0.6504 3.902,0.6504 0.891,0 1.606,-0.1172 2.145,-0.3516 0.551,-0.2344 0.949,-0.5566 1.195,-0.9668 0.246,-0.4102 0.369,-0.8789 0.369,-1.4062 0,-0.6446 -0.216,-1.1954 -0.65,-1.6524 -0.433,-0.457 -1.031,-0.8848 -1.793,-1.2832 -0.75,-0.3984 -1.599,-0.8262 -2.549,-1.2832 -0.597,-0.2812 -1.248,-0.6211 -1.951,-1.0195 -0.703,-0.4102 -1.371,-0.9082 -2.004,-1.4942 -0.633,-0.5859 -1.154,-1.2949 -1.564,-2.1269 -0.399,-0.8438 -0.598,-1.8516 -0.598,-3.0235 0,-1.5351 0.352,-2.8476 1.055,-3.9375 0.703,-1.0898 1.705,-1.9218 3.006,-2.4961 1.312,-0.5859 2.859,-0.8789 4.64,-0.8789 1.336,0 2.608,0.1582 3.815,0.4746 1.218,0.3047 2.49,0.7501 3.814,1.336 l -1.758,4.2363 C 110.801,9.498 109.74,9.1289 108.803,8.8711 107.865,8.6016 106.91,8.4668 105.938,8.4668 c -0.68,0 -1.26,0.1113 -1.741,0.334 -0.48,0.2109 -0.843,0.5156 -1.09,0.914 -0.246,0.3868 -0.369,0.8379 -0.369,1.3536 0,0.6093 0.176,1.125 0.528,1.5468 0.363,0.4102 0.902,0.8086 1.617,1.1953 0.726,0.3868 1.629,0.8379 2.707,1.3536 1.312,0.6211 2.431,1.2714 3.357,1.9511 0.938,0.668 1.658,1.459 2.162,2.3731 0.504,0.9023 0.756,2.0273 0.756,3.375 z m 19.828,0 c 0,1.5234 -0.369,2.8476 -1.107,3.9726 -0.738,1.125 -1.816,1.9922 -3.234,2.6016 -1.407,0.6094 -3.118,0.9141 -5.133,0.9141 -0.891,0 -1.764,-0.0586 -2.619,-0.1758 -0.844,-0.1172 -1.659,-0.2871 -2.444,-0.5098 -0.773,-0.2344 -1.511,-0.5215 -2.215,-0.8613 v -5.0625 c 1.219,0.539 2.485,1.0254 3.797,1.459 1.313,0.4336 2.614,0.6504 3.903,0.6504 0.89,0 1.605,-0.1172 2.144,-0.3516 0.551,-0.2344 0.949,-0.5566 1.195,-0.9668 0.247,-0.4102 0.37,-0.8789 0.37,-1.4062 0,-0.6446 -0.217,-1.1954 -0.651,-1.6524 -0.433,-0.457 -1.031,-0.8848 -1.793,-1.2832 -0.75,-0.3984 -1.599,-0.8262 -2.549,-1.2832 -0.597,-0.2812 -1.248,-0.6211 -1.951,-1.0195 -0.703,-0.4102 -1.371,-0.9082 -2.004,-1.4942 -0.632,-0.5859 -1.154,-1.2949 -1.564,-2.1269 -0.399,-0.8438 -0.598,-1.8516 -0.598,-3.0235 0,-1.5351 0.352,-2.8476 1.055,-3.9375 0.703,-1.0898 1.705,-1.9218 3.006,-2.4961 1.312,-0.5859 2.859,-0.8789 4.64,-0.8789 1.336,0 2.608,0.1582 3.815,0.4746 1.219,0.3047 2.49,0.7501 3.814,1.336 l -1.758,4.2363 c -1.183,-0.4805 -2.244,-0.8496 -3.181,-1.1074 -0.938,-0.2695 -1.893,-0.4043 -2.865,-0.4043 -0.68,0 -1.26,0.1113 -1.741,0.334 -0.48,0.2109 -0.843,0.5156 -1.089,0.914 -0.247,0.3868 -0.37,0.8379 -0.37,1.3536 0,0.6093 0.176,1.125 0.528,1.5468 0.363,0.4102 0.902,0.8086 1.617,1.1953 0.727,0.3868 1.629,0.8379 2.707,1.3536 1.312,0.6211 2.432,1.2714 3.357,1.9511 0.938,0.668 1.659,1.459 2.163,2.3731 0.503,0.9023 0.755,2.0273 0.755,3.375 z"
     fill="#ffffff"
     id="path2" />
  <rect
     x="0"
     y="4"
     width="40"
     height="30"
     rx="6"
     fill="#ffffff"
     id="rect4" />
  <rect
     x="9.5"
     y="0.5"
     width="6"
     height="8"
     rx="3"
     fill="#bd5334"
     stroke="#ffffff"
     id="rect6" />
  <rect
     x="24.5"
     y="0.5"
     width="6"
     height="8"
     rx="3"
     fill="#bd5334"
     stroke="#ffffff"
     id="rect8" />
  <path
     d="m 25.8669,14.954 c 0,3.288 -2.665,5.953 -5.953,5.953 -3.288,0 -5.953,-2.665 -5.953,-5.953 0,-3.288 2.665,-5.954 5.953,-5.954 3.288,0 5.953,2.666 5.953,5.954"
     fill="#bd5334"
     id="path10" />
  <path
     d="m 25.3663,20.1406 c -1.3731,1.4414 -3.3076,2.3418 -5.4513,2.3418 -2.1426,0 -4.078,-0.9004 -5.4513,-2.3418 C 12.3573,20.9873 11,22.3115 11,23.8019 c 0,2.5557 3.9912,6.2977 8.914,6.2977 4.9237,0 8.914,-3.7422 8.914,-6.2977 0.001,-1.4902 -1.3564,-2.8145 -3.462,-3.6613 z"
     fill="#bd5334"
     id="path12" />
</svg>
