<svg width="23" height="27" viewBox="0 0 23 27" fill="none" xmlns="http://www.w3.org/2000/svg">
<path d="M7.7023 25.052V19.765C7.7023 19.502 7.48804 19.2891 7.22615 19.2891C6.96426 19.2891 6.75 19.5032 6.75 19.765V25.051C6.75 25.314 6.96426 25.5269 7.22615 25.5269C7.48784 25.5269 7.7023 25.314 7.7023 25.052V25.052Z" fill="#514EF9"/>
<path d="M12.5391 20.7259V26.0119C12.5391 26.2749 12.7533 26.4879 13.0152 26.4879C13.2771 26.4879 13.4914 26.2737 13.4914 26.0119V20.7259C13.4914 20.463 13.2771 20.25 13.0152 20.25C12.7533 20.25 12.5391 20.463 12.5391 20.7259Z" fill="#514EF9"/>
<path d="M9.64844 24.3301V26.7815C9.64844 26.9035 9.8655 27.0022 10.1308 27.0022C10.3961 27.0022 10.6132 26.9029 10.6132 26.7815V24.3301C10.6132 24.2081 10.3961 24.1094 10.1308 24.1094C9.8655 24.1094 9.64844 24.2081 9.64844 24.3301Z" fill="#514EF9"/>
<path d="M4.82031 15.7975V19.8833C4.82031 20.0865 5.03737 20.2511 5.30269 20.2511C5.568 20.2511 5.78506 20.0856 5.78506 19.8833V15.7975C5.78506 15.5943 5.568 15.4297 5.30269 15.4297C5.03737 15.4297 4.82031 15.5943 4.82031 15.7975Z" fill="#514EF9"/>
<path d="M14.4688 17.8353V23.1198C14.4688 23.3827 14.683 23.5957 14.9449 23.5957C15.2068 23.5957 15.421 23.3816 15.421 23.1198V17.8353C15.421 17.5723 15.2068 17.3594 14.9449 17.3594C14.683 17.3594 14.4688 17.5735 14.4688 17.8353Z" fill="#514EF9"/>
<path d="M11.2481 11.5819C11.1084 11.5461 10.9578 11.5952 10.8831 11.701L6.8373 17.4223C6.7574 17.5372 6.73117 17.6729 6.76348 17.8032C6.7958 17.9335 6.88455 18.0489 7.01227 18.1269C7.13998 18.205 7.29768 18.2402 7.45438 18.2255L9.16635 18.0609L8.50311 22.2669C8.48352 22.3906 8.56763 22.5094 8.70619 22.5532C8.84464 22.5971 9.00058 22.5544 9.08223 22.4503L13.6436 16.6688C13.7335 16.5549 13.7684 16.4161 13.7408 16.2813C13.7132 16.1463 13.6255 16.0254 13.4957 15.9434C13.3657 15.8614 13.2035 15.8244 13.0424 15.8402L11.3304 15.9995L11.4764 11.8497V11.8498C11.4821 11.7268 11.3879 11.6163 11.2479 11.582L11.2481 11.5819ZM13.1138 16.3675L9.31399 21.1867L9.84708 17.7906V17.7905C9.85903 17.7136 9.83092 17.6362 9.77005 17.5782C9.70919 17.5201 9.62153 17.4873 9.52979 17.4879H9.49327L7.38313 17.6967L10.8053 12.8602L10.6863 16.2938C10.6838 16.3715 10.7214 16.4462 10.7895 16.4986C10.8573 16.5509 10.9487 16.5759 11.0401 16.5669L13.1138 16.3675Z" fill="#DBC924"/>
<path d="M4.71746 14.3565H8.23163C8.44445 14.3565 8.61679 14.1843 8.61679 13.9715C8.61679 13.7588 8.44348 13.5866 8.23163 13.5866H4.71746C2.54193 13.5866 0.771868 11.8173 0.771868 9.64191C0.771868 7.46935 2.54193 5.70112 4.80306 5.70112C5.01201 5.70112 5.18242 5.53563 5.18726 5.32662C5.25948 2.77104 7.31941 0.769807 9.87708 0.769807C12.2904 0.769807 14.2974 2.57657 14.5467 4.9735C14.5583 5.08904 14.6208 5.19201 14.7181 5.2555C14.8143 5.31899 14.9357 5.33639 15.0445 5.30175C15.2622 5.23439 15.4837 5.19974 15.7042 5.19974C16.9619 5.19974 17.9837 6.22302 17.9837 7.47914L17.9779 7.61773C17.9712 7.7439 18.0271 7.86508 18.1263 7.94308C18.2264 8.02107 18.3575 8.04411 18.4787 8.0056C18.7734 7.9123 19.072 7.86508 19.3685 7.86508C20.9459 7.86508 22.2287 9.14814 22.2287 10.7249C22.2287 12.3035 20.9461 13.5877 19.3685 13.5877H13.7587C13.5459 13.5877 13.3735 13.7599 13.3735 13.9726C13.3735 14.1854 13.5469 14.3576 13.7587 14.3576H19.3685C21.3707 14.3576 23 12.728 23 10.7249C23 8.72364 21.3715 7.09514 19.3685 7.09514C19.1576 7.09514 18.9467 7.11431 18.7366 7.15089C18.5556 5.47693 16.9685 4.19581 15.2515 4.46523C14.7796 1.89125 12.5416 0 9.87782 0C7.02339 0 4.70138 2.14178 4.44054 4.93882C1.96756 5.08321 0 7.13827 0 9.64291C0 12.2419 2.11589 14.3565 4.71707 14.3565L4.71746 14.3565Z" fill="#3B86CB"/>
</svg>
