<svg width="30" height="30" viewBox="0 0 30 30" fill="none" xmlns="http://www.w3.org/2000/svg">
<path d="M11.4981 19.0116C11.3584 18.9758 11.2078 19.0249 11.1331 19.1307L7.0873 24.852C7.0074 24.9668 6.98117 25.1026 7.01348 25.2329C7.0458 25.3631 7.13455 25.4786 7.26227 25.5566C7.38998 25.6347 7.54768 25.6699 7.70438 25.6552L9.41635 25.4906L8.75311 29.6966C8.73352 29.8203 8.81763 29.9391 8.95619 29.9829C9.09464 30.0268 9.25058 29.9841 9.33223 29.88L13.8936 24.0985C13.9835 23.9846 14.0184 23.8458 13.9908 23.711C13.9632 23.576 13.8755 23.4551 13.7457 23.3731C13.6157 23.291 13.4535 23.2541 13.2924 23.2698L11.5804 23.4291L11.7264 19.2794V19.2794C11.7321 19.1565 11.6379 19.046 11.4979 19.0116L11.4981 19.0116ZM13.3638 23.7972L9.56399 28.6163L10.0971 25.2203V25.2202C10.109 25.1433 10.0809 25.0659 10.0201 25.0079C9.95919 24.9498 9.87153 24.917 9.77979 24.9176H9.74327L7.63313 25.1264L11.0553 20.2898L10.9363 23.7235C10.9338 23.8012 10.9714 23.8759 11.0395 23.9283C11.1073 23.9806 11.1987 24.0056 11.2901 23.9966L13.3638 23.7972Z" fill="#DBC924"/>
<path d="M23.8784 10.9375C23.8784 8.36591 21.8391 6.26785 19.3392 6.26785C17.9249 6.26785 16.6091 6.94454 15.7209 8.09497C15.5236 8.3657 15.129 8.43344 14.8658 8.23021C14.6026 8.02722 14.5368 7.62125 14.7343 7.35049C15.8198 5.86157 17.4972 5.01562 19.3063 5.01562C22.4969 5.01562 25.0625 7.68869 25.0625 10.9372C25.0625 12.4262 24.5362 13.8136 23.5824 14.93C23.4509 15.0652 23.2864 15.133 23.1219 15.133C22.9574 15.133 22.8259 15.0652 22.6943 14.9637C22.4311 14.7267 22.4311 14.3207 22.6614 14.084C23.4507 13.2048 23.8784 12.0881 23.8784 10.9375L23.8784 10.9375Z" fill="#DD742D"/>
<path d="M19.5781 3.5868C19.2491 3.5868 18.9531 3.31607 18.9531 2.94383V0.642978C18.9531 0.304504 19.2163 0 19.5781 0C19.9399 0 20.2031 0.270733 20.2031 0.642978V2.94383C20.2031 3.31605 19.9069 3.5868 19.5781 3.5868Z" fill="#DD742D"/>
<path d="M14.0074 5.78324C13.8429 5.78324 13.6784 5.7155 13.5797 5.614L12.0009 3.98985C11.7706 3.75287 11.7706 3.34687 12.0009 3.07617C12.2313 2.83919 12.6259 2.83919 12.8891 3.07617L14.4679 4.70032C14.6982 4.9373 14.6982 5.3433 14.4679 5.614C14.3364 5.7155 14.1719 5.78324 14.0074 5.78324V5.78324Z" fill="#DD742D"/>
<path d="M25.1313 16.2829L26.71 17.941C26.9404 18.178 26.9404 18.584 26.71 18.8547C26.5786 18.99 26.4469 19.024 26.2824 19.024C26.1179 19.024 25.9534 18.9562 25.8547 18.8547L24.2759 17.2306C24.0456 16.9936 24.0456 16.5876 24.2759 16.3169C24.4735 16.0462 24.8681 16.0462 25.1312 16.2829L25.1313 16.2829Z" fill="#DD742D"/>
<path d="M26.4803 11.1586C26.4803 10.8201 26.7435 10.5156 27.1054 10.5156H29.375C29.704 10.5156 30 10.7864 30 11.1586C30 11.5308 29.7368 11.8016 29.375 11.8016H27.1384C26.7766 11.8016 26.4804 11.4971 26.4804 11.1586H26.4803Z" fill="#DD742D"/>
<path d="M25.4344 5.87963C25.3029 6.01488 25.1712 6.04887 25.0067 6.04887C24.8422 6.04887 24.6777 5.98112 24.5791 5.87963C24.3487 5.64265 24.3487 5.23665 24.5791 4.96595L26.1578 3.3418C26.3882 3.10482 26.7828 3.10482 27.046 3.3418C27.2763 3.57878 27.2763 3.98478 27.046 4.25548L25.4344 5.87963Z" fill="#DD742D"/>
<path d="M4.8208 21.1814H8.41195C8.62943 21.1814 8.80555 21.0085 8.80555 20.7951C8.80555 20.5816 8.62844 20.4087 8.41195 20.4087H4.8208C2.59762 20.4087 0.788776 18.6331 0.788776 16.4499C0.788776 14.2696 2.59762 12.495 4.90828 12.495C5.1218 12.495 5.29594 12.3289 5.30089 12.1192C5.37469 9.55441 7.47974 7.546 10.0934 7.546C12.5597 7.546 14.6106 9.35924 14.8653 11.7648C14.8772 11.8807 14.9411 11.9841 15.0405 12.0478C15.1388 12.1115 15.2629 12.129 15.3741 12.0942C15.5965 12.0266 15.8229 11.9918 16.0483 11.9918C17.3335 11.9918 18.3777 13.0188 18.3777 14.2794L18.3718 14.4185C18.3648 14.5451 18.422 14.6667 18.5233 14.745C18.6256 14.8233 18.7596 14.8464 18.8835 14.8077C19.1846 14.7141 19.4898 14.6667 19.7928 14.6667C21.4047 14.6667 22.7157 15.9544 22.7157 17.5368C22.7157 19.121 21.4049 20.4098 19.7928 20.4098H14.0601C13.8426 20.4098 13.6665 20.5827 13.6665 20.7962C13.6665 21.0096 13.8436 21.1825 14.0601 21.1825H19.7928C21.8389 21.1825 23.5038 19.547 23.5038 17.5368C23.5038 15.5283 21.8397 13.894 19.7928 13.894C19.5773 13.894 19.3618 13.9133 19.1471 13.95C18.9621 12.27 17.3402 10.9843 15.5856 11.2547C15.1034 8.67146 12.8163 6.77344 10.0942 6.77344C7.17724 6.77344 4.80437 8.92289 4.53781 11.73C2.01066 11.8749 0 13.9373 0 16.4509C0 19.0592 2.16224 21.1814 4.8204 21.1814L4.8208 21.1814Z" fill="#3B86CB"/>
</svg>
