<svg width="18" height="18" viewBox="0 0 18 18" fill="none" xmlns="http://www.w3.org/2000/svg">
<path d="M17.9429 12.6296C18.0477 12.4198 18.0057 12.189 17.838 12.0422C17.6912 11.8744 17.4397 11.8535 17.2511 11.9373C16.1193 12.4827 14.8826 12.7555 13.6248 12.7555C8.99241 12.7555 5.24034 9.00039 5.24034 4.36423C5.24034 3.10547 5.51288 1.8678 6.05783 0.735055C6.16267 0.525214 6.1207 0.29444 5.953 0.147668C5.78529 0.000750128 5.55469 -0.0411012 5.36608 0.0427475C2.09616 1.59505 0 4.95162 0 8.55986C0 13.7624 4.23417 18 9.43256 18C13.0379 18 16.3917 15.9022 17.9428 12.6296L17.9429 12.6296ZM9.43259 16.9511C4.80015 16.9511 1.04809 13.196 1.04809 8.55988C1.04809 5.83269 2.38961 3.29438 4.5695 1.72102C4.31801 2.58101 4.19227 3.4622 4.19227 4.36422C4.19227 9.56679 8.42645 13.8044 13.6248 13.8044C14.5261 13.8044 15.4066 13.6785 16.2659 13.4268C14.6938 15.6085 12.1575 16.9511 9.43255 16.9511L9.43259 16.9511Z" fill="#6D7AE5"/>
</svg>
