<svg width="24" height="22" viewBox="0 0 24 22" fill="none" xmlns="http://www.w3.org/2000/svg">
<path d="M4.88985 14.8882H8.53244C8.75303 14.8882 8.93167 14.7096 8.93167 14.489C8.93167 14.2684 8.75202 14.0898 8.53244 14.0898H4.88985C2.63482 14.0898 0.800074 12.255 0.800074 9.99902C0.800074 7.746 2.63482 5.91228 4.97858 5.91228C5.19516 5.91228 5.3718 5.74065 5.37681 5.52391C5.45168 2.87367 7.58688 0.798319 10.238 0.798319C12.7395 0.798319 14.8199 2.672 15.0783 5.1577C15.0903 5.27752 15.1551 5.38431 15.2559 5.45015C15.3557 5.51599 15.4815 5.53404 15.5943 5.49811C15.8199 5.42826 16.0495 5.39233 16.2781 5.39233C17.5818 5.39233 18.6409 6.45351 18.6409 7.75615L18.6349 7.89986C18.6279 8.03071 18.6859 8.15638 18.7886 8.23727C18.8924 8.31815 19.0283 8.34204 19.1539 8.3021C19.4594 8.20535 19.7689 8.15638 20.0763 8.15638C21.7113 8.15638 23.041 9.48696 23.041 11.1221C23.041 12.7592 21.7115 14.0909 20.0763 14.0909H14.2615C14.0409 14.0909 13.8622 14.2696 13.8622 14.4902C13.8622 14.7107 14.0419 14.8894 14.2615 14.8894H20.0763C22.1517 14.8894 23.8405 13.1994 23.8405 11.1221C23.8405 9.04674 22.1525 7.35792 20.0763 7.35792C19.8577 7.35792 19.6391 7.37781 19.4213 7.41574C19.2337 5.67978 17.5886 4.35121 15.8089 4.63061C15.3197 1.96129 12.9999 0 10.2388 0C7.28004 0 4.87318 2.2211 4.60281 5.12174C2.03946 5.27147 0 7.40265 0 10.0001C0 12.6953 2.19321 14.8882 4.88944 14.8882L4.88985 14.8882Z" fill="#E0E0E0"/>
<path d="M11.3112 16.75H7.30795C7.13796 16.75 7 16.582 7 16.375C7 16.168 7.13796 16 7.30795 16H11.3112C11.8206 16 12.2351 15.4953 12.2351 14.875C12.2351 14.2548 11.8206 13.75 11.3112 13.75C10.8019 13.75 10.3874 14.2548 10.3874 14.875C10.3874 15.082 10.2495 15.25 10.0795 15.25C9.90947 15.25 9.77151 15.082 9.77151 14.875C9.77151 13.8415 10.4625 13 11.3112 13C12.1606 13 12.851 13.8415 12.851 14.875C12.851 15.9085 12.1606 16.75 11.3112 16.75Z" fill="#6A6A6A"/>
<path d="M14.0828 22C13.2334 22 12.543 21.1593 12.543 20.125C12.543 19.918 12.681 19.75 12.851 19.75C13.021 19.75 13.1589 19.918 13.1589 20.125C13.1589 20.7453 13.5734 21.25 14.0828 21.25C14.5921 21.25 15.0066 20.7453 15.0066 20.125C15.0066 19.5048 14.5921 19 14.0828 19H7.30795C7.13796 19 7 18.832 7 18.625C7 18.418 7.13796 18.25 7.30795 18.25H14.0828C14.9321 18.25 15.6225 19.0907 15.6225 20.125C15.6225 21.1593 14.9321 22 14.0828 22Z" fill="#6A6A6A"/>
</svg>
