<svg width="18" height="18" viewBox="0 0 18 18" fill="none" xmlns="http://www.w3.org/2000/svg">
<path fill-rule="evenodd" clip-rule="evenodd" d="M8.3572 15.4285V17.3571C8.3572 17.712 8.64519 18 9.00006 18C9.35493 18 9.64292 17.712 9.64292 17.3571V15.4285C9.64292 15.0737 9.35493 14.7857 9.00006 14.7857C8.64519 14.7857 8.3572 15.0737 8.3572 15.4285ZM3.85717 13.2338L2.30526 14.7857C2.05458 15.0364 2.05458 15.4441 2.30526 15.6947C2.55595 15.9454 2.96363 15.9454 3.21431 15.6947L4.76621 14.1428C5.0169 13.8921 5.0169 13.4845 4.76621 13.2338C4.51552 12.9831 4.10785 12.9831 3.85717 13.2338ZM13.2338 14.1428L14.7857 15.6947C15.0363 15.9454 15.444 15.9454 15.6947 15.6947C15.9454 15.444 15.9454 15.0364 15.6947 14.7857L14.1428 13.2338C13.8921 12.9831 13.4844 12.9831 13.2338 13.2338C12.9831 13.4845 12.9831 13.8921 13.2338 14.1428ZM9.00006 3.85703C6.16184 3.85703 3.85717 6.16171 3.85717 8.99993C3.85717 11.8381 6.16184 14.1428 9.00006 14.1428C11.8383 14.1428 14.1429 11.8381 14.1429 8.99993C14.1429 6.16171 11.8383 3.85703 9.00006 3.85703ZM9.00006 5.14275C11.1285 5.14275 12.8572 6.87146 12.8572 8.99993C12.8572 11.1284 11.1285 12.8571 9.00006 12.8571C6.8716 12.8571 5.14289 11.1284 5.14289 8.99993C5.14289 6.87146 6.8716 5.14275 9.00006 5.14275ZM17.3822 8.35765L17.3571 8.35708H15.4285C15.0737 8.35708 14.7857 8.64507 14.7857 8.99994C14.7857 9.35481 15.0737 9.6428 15.4285 9.6428H17.3571C17.658 9.6428 17.9106 9.43574 17.9808 9.1568L17.9852 9.13628L17.9897 9.11375L17.993 9.0938L17.9956 9.07386L17.9981 9.05334L17.9994 9.03267L18 9.01215V8.98963L17.9994 8.96911L17.9981 8.94916L17.9961 8.92864L17.9935 8.90869L17.9904 8.88875L17.9858 8.86493L17.9801 8.84182L17.9743 8.82001L17.9673 8.79748L17.9608 8.77883L17.9536 8.76075L17.9466 8.74281L17.9383 8.72488L17.93 8.70751L17.9202 8.69015L17.9106 8.67336L17.901 8.65671L17.8792 8.62457L17.8676 8.60907L17.8535 8.59114L17.838 8.57377L17.8226 8.55641L17.8058 8.54034L17.7879 8.52298L17.7705 8.50748L17.7525 8.49342L17.7345 8.47993L17.7152 8.46644L17.6991 8.45539L17.683 8.44577L17.6657 8.43616L17.649 8.42712L17.6309 8.41822L17.6137 8.41047L17.5918 8.40143L17.5692 8.39311L17.5481 8.38608L17.5256 8.37962L17.5024 8.37374L17.4826 8.36929L17.4632 8.36613L17.4432 8.36283L17.4227 8.36025L17.4028 8.35839L17.3822 8.35765ZM0.642861 9.64279H2.57145C2.92631 9.64279 3.21431 9.35479 3.21431 8.99993C3.21431 8.64506 2.92631 8.35706 2.57145 8.35706H0.642861C0.287994 8.35706 0 8.64506 0 8.99993C0 9.35479 0.287994 9.64279 0.642861 9.64279ZM14.1429 4.76622L15.6949 3.21431C15.9455 2.96362 15.9455 2.55595 15.6949 2.30527C15.4442 2.05458 15.0365 2.05458 14.7858 2.30527L13.2339 3.85717C12.9832 4.10786 12.9832 4.51554 13.2339 4.76622C13.4846 5.01691 13.8923 5.01691 14.1429 4.76622V4.76622ZM4.76636 3.85717L3.21445 2.30527C2.96377 2.05458 2.55609 2.05458 2.30541 2.30527C2.05472 2.55595 2.05472 2.96363 2.30541 3.21431L3.85731 4.76622C4.108 5.01691 4.51568 5.01691 4.76636 4.76622C5.01704 4.51553 5.01704 4.10785 4.76636 3.85717V3.85717ZM8.35734 0.642862V2.57145C8.35734 2.92632 8.64534 3.21431 9.00021 3.21431C9.35507 3.21431 9.64307 2.92632 9.64307 2.57145V0.642862C9.64307 0.287995 9.35507 0 9.00021 0C8.64534 0 8.35734 0.287995 8.35734 0.642862Z" fill="#DD742D"/>
</svg>
