<svg width="30" height="26" viewBox="0 0 30 26" fill="none" xmlns="http://www.w3.org/2000/svg">
<path d="M23.8784 11.0975C23.8784 8.48693 21.8391 6.35711 19.3392 6.35711C17.9249 6.35711 16.6091 7.04405 15.7209 8.21188C15.5236 8.48671 15.129 8.55548 14.8658 8.34918C14.6026 8.14312 14.5368 7.731 14.7343 7.45614C15.8198 5.94468 17.4972 5.08594 19.3063 5.08594C22.4969 5.08594 25.0625 7.79946 25.0625 11.0972C25.0625 12.6086 24.5362 14.017 23.5824 15.1503C23.4509 15.2876 23.2864 15.3564 23.1219 15.3564C22.9574 15.3564 22.8259 15.2876 22.6943 15.1846C22.4311 14.944 22.4311 14.5319 22.6614 14.2916C23.4507 13.399 23.8784 12.2655 23.8784 11.0974L23.8784 11.0975Z" fill="#DD742D"/>
<path d="M19.5781 3.64109C19.2491 3.64109 18.9531 3.36626 18.9531 2.98838V0.65271C18.9531 0.309113 19.2163 0 19.5781 0C19.9399 0 20.2031 0.27483 20.2031 0.65271V2.98838C20.2031 3.36624 19.9069 3.64109 19.5781 3.64109Z" fill="#DD742D"/>
<path d="M14.0074 5.86597C13.8429 5.86597 13.6784 5.7972 13.5797 5.69417L12.0009 4.04543C11.7706 3.80487 11.7706 3.39272 12.0009 3.11792C12.2313 2.87736 12.6259 2.87736 12.8891 3.11792L14.4679 4.76666C14.6982 5.00722 14.6982 5.41937 14.4679 5.69417C14.3364 5.7972 14.1719 5.86597 14.0074 5.86597V5.86597Z" fill="#DD742D"/>
<path d="M25.1313 16.5199L26.71 18.2031C26.9404 18.4437 26.9404 18.8558 26.71 19.1306C26.5786 19.2679 26.4469 19.3024 26.2824 19.3024C26.1179 19.3024 25.9534 19.2337 25.8547 19.1306L24.2759 17.4819C24.0456 17.2413 24.0456 16.8292 24.2759 16.5544C24.4735 16.2796 24.8681 16.2796 25.1312 16.5199L25.1313 16.5199Z" fill="#DD742D"/>
<path d="M26.4803 11.3324C26.4803 10.9888 26.7435 10.6797 27.1054 10.6797H29.375C29.704 10.6797 30 10.9545 30 11.3324C30 11.7103 29.7368 11.9851 29.375 11.9851H27.1384C26.7766 11.9851 26.4804 11.676 26.4804 11.3324H26.4803Z" fill="#DD742D"/>
<path d="M25.4344 5.97542C25.3029 6.11271 25.1712 6.14722 25.0067 6.14722C24.8422 6.14722 24.6777 6.07845 24.5791 5.97542C24.3487 5.73485 24.3487 5.32271 24.5791 5.04791L26.1578 3.39917C26.3882 3.15861 26.7828 3.15861 27.046 3.39917C27.2763 3.63974 27.2763 4.05188 27.046 4.32668L25.4344 5.97542Z" fill="#DD742D"/>
<path d="M9.26562 19.5094V23.9029C9.26562 24.1197 9.44273 24.2951 9.65922 24.2951C9.87571 24.2951 10.0528 24.1197 10.0528 23.9029V19.5094C10.0528 19.2927 9.87571 19.1172 9.65922 19.1172C9.4429 19.1172 9.26562 19.2937 9.26562 19.5094Z" fill="#514EF9"/>
<path d="M10.8047 21.2125V25.6061C10.8047 25.8228 10.9818 25.9983 11.1983 25.9983C11.4148 25.9983 11.5919 25.8228 11.5919 25.6061V21.2125C11.5919 20.9958 11.4148 20.8203 11.1983 20.8203C10.9818 20.8203 10.8047 20.9958 10.8047 21.2125Z" fill="#514EF9"/>
<path d="M12.3359 20.2828V24.6764C12.3359 24.8931 12.513 25.0686 12.7295 25.0686C12.946 25.0686 13.1231 24.8931 13.1231 24.6764V20.2828C13.1231 20.0661 12.946 19.8906 12.7295 19.8906C12.513 19.8906 12.3359 20.0661 12.3359 20.2828Z" fill="#514EF9"/>
<path d="M4.8208 21.501H8.41195C8.62943 21.501 8.80555 21.3255 8.80555 21.1088C8.80555 20.8921 8.62844 20.7166 8.41195 20.7166H4.8208C2.59762 20.7166 0.788776 18.9142 0.788776 16.6979C0.788776 14.4846 2.59762 12.6832 4.90828 12.6832C5.1218 12.6832 5.29594 12.5146 5.30089 12.3016C5.37469 9.69806 7.47974 7.65926 10.0934 7.65926C12.5597 7.65926 14.6106 9.49994 14.8653 11.9419C14.8772 12.0596 14.9411 12.1645 15.0405 12.2292C15.1388 12.2938 15.2629 12.3116 15.3741 12.2763C15.5965 12.2077 15.8229 12.1724 16.0483 12.1724C17.3335 12.1724 18.3777 13.2149 18.3777 14.4945L18.3718 14.6357C18.3648 14.7643 18.422 14.8877 18.5233 14.9672C18.6256 15.0467 18.7596 15.0701 18.8835 15.0309C19.1846 14.9358 19.4898 14.8877 19.7928 14.8877C21.4047 14.8877 22.7157 16.1949 22.7157 17.8013C22.7157 19.4095 21.4049 20.7178 19.7928 20.7178H14.0601C13.8426 20.7178 13.6665 20.8933 13.6665 21.11C13.6665 21.3267 13.8436 21.5022 14.0601 21.5022H19.7928C21.8389 21.5022 23.5038 19.8419 23.5038 17.8013C23.5038 15.7624 21.8397 14.1033 19.7928 14.1033C19.5773 14.1033 19.3618 14.1229 19.1471 14.1601C18.9621 12.4547 17.3402 11.1496 15.5856 11.4241C15.1034 8.80175 12.8163 6.875 10.0942 6.875C7.17724 6.875 4.80437 9.05699 4.53781 11.9065C2.01066 12.0536 0 14.1473 0 16.6989C0 19.3467 2.16224 21.501 4.8204 21.501L4.8208 21.501Z" fill="#3B86CB"/>
</svg>
