<svg width="29" height="29" viewBox="0 0 29 29" fill="none" xmlns="http://www.w3.org/2000/svg">
<path d="M23.0819 11.299C23.0819 8.64165 21.1106 6.47365 18.694 6.47365C17.3269 6.47365 16.055 7.1729 15.1964 8.36167C15.0056 8.64143 14.6242 8.71143 14.3697 8.50143C14.1153 8.29167 14.0517 7.87217 14.2427 7.59238C15.2919 6.05383 16.9135 5.17969 18.6623 5.17969C21.7465 5.17969 24.2266 7.94185 24.2266 11.2987C24.2266 12.8372 23.7178 14.2709 22.7958 15.4245C22.6687 15.5643 22.5097 15.6343 22.3507 15.6343C22.1916 15.6343 22.0646 15.5643 21.9373 15.4594C21.6829 15.2145 21.6829 14.795 21.9055 14.5503C22.6685 13.6418 23.0819 12.4879 23.0819 11.2989L23.0819 11.299Z" fill="#DD742D"/>
<path d="M18.9271 3.70636C18.609 3.70636 18.3229 3.42661 18.3229 3.04195V0.664411C18.3229 0.314654 18.5773 0 18.9271 0C19.2768 0 19.5312 0.279757 19.5312 0.664411V3.04195C19.5312 3.42659 19.2449 3.70636 18.9271 3.70636Z" fill="#DD742D"/>
<path d="M13.5441 5.97315C13.3851 5.97315 13.2261 5.90315 13.1307 5.79827L11.6045 4.11998C11.3819 3.8751 11.3819 3.45557 11.6045 3.17585C11.8272 2.93097 12.2087 2.93097 12.4631 3.17585L13.9892 4.85414C14.2119 5.09902 14.2119 5.51855 13.9892 5.79827C13.8622 5.90315 13.7031 5.97315 13.5441 5.97315V5.97315Z" fill="#DD742D"/>
<path d="M24.2912 16.82L25.8174 18.5333C26.04 18.7782 26.04 19.1978 25.8174 19.4775C25.6903 19.6172 25.563 19.6524 25.404 19.6524C25.2449 19.6524 25.0859 19.5824 24.9905 19.4775L23.4644 17.7992C23.2417 17.5543 23.2417 17.1348 23.4644 16.8551C23.6554 16.5753 24.0368 16.5753 24.2912 16.8199L24.2912 16.82Z" fill="#DD742D"/>
<path d="M25.5977 11.5316C25.5977 11.1818 25.8521 10.8672 26.2018 10.8672H28.3958C28.7139 10.8672 29 11.1469 29 11.5316C29 11.9163 28.7456 12.196 28.3958 12.196H26.2338C25.884 12.196 25.5977 11.8814 25.5977 11.5316H25.5977Z" fill="#DD742D"/>
<path d="M24.5876 6.07952C24.4605 6.21928 24.3332 6.2544 24.1742 6.2544C24.0152 6.2544 23.8562 6.1844 23.7608 6.07952C23.5381 5.83465 23.5381 5.41511 23.7608 5.13539L25.2869 3.4571C25.5096 3.21222 25.8911 3.21222 26.1455 3.4571C26.3682 3.70197 26.3682 4.12151 26.1455 4.40123L24.5876 6.07952Z" fill="#DD742D"/>
<path d="M4.66011 21.8882H8.13156C8.34178 21.8882 8.51203 21.7096 8.51203 21.489C8.51203 21.2684 8.34082 21.0898 8.13156 21.0898H4.66011C2.51103 21.0898 0.762483 19.255 0.762483 16.999C0.762483 14.746 2.51103 12.9123 4.74467 12.9123C4.95107 12.9123 5.11941 12.7407 5.12419 12.5239C5.19554 9.87367 7.23042 7.79832 9.757 7.79832C12.141 7.79832 14.1236 9.672 14.3698 12.1577C14.3813 12.2775 14.4431 12.3843 14.5391 12.4501C14.6342 12.516 14.7541 12.534 14.8616 12.4981C15.0766 12.4283 15.2955 12.3923 15.5133 12.3923C16.7557 12.3923 17.7651 13.4535 17.7651 14.7561L17.7594 14.8999C17.7527 15.0307 17.8079 15.1564 17.9059 15.2373C18.0048 15.3181 18.1343 15.342 18.254 15.3021C18.5452 15.2053 18.8401 15.1564 19.133 15.1564C20.6912 15.1564 21.9585 16.487 21.9585 18.1221C21.9585 19.7592 20.6914 21.0909 19.133 21.0909H13.5914C13.3812 21.0909 13.2109 21.2696 13.2109 21.4902C13.2109 21.7107 13.3821 21.8894 13.5914 21.8894H19.133C21.1109 21.8894 22.7204 20.1994 22.7204 18.1221C22.7204 16.0467 21.1117 14.3579 19.133 14.3579C18.9247 14.3579 18.7164 14.3778 18.5088 14.4157C18.33 12.6798 16.7622 11.3512 15.0661 11.6306C14.5999 8.96129 12.3891 7 9.75772 7C6.938 7 4.64422 9.2211 4.38655 12.1217C1.94363 12.2715 0 14.4027 0 17.0001C0 19.6953 2.09017 21.8882 4.65972 21.8882L4.66011 21.8882Z" fill="#3B86CB"/>
<path d="M10.9604 23.75H6.9782C6.80911 23.75 6.67188 23.582 6.67188 23.375C6.67188 23.168 6.80911 23 6.9782 23H10.9604C11.4671 23 11.8794 22.4953 11.8794 21.875C11.8794 21.2548 11.4671 20.75 10.9604 20.75C10.4538 20.75 10.0415 21.2548 10.0415 21.875C10.0415 22.082 9.90424 22.25 9.73514 22.25C9.56605 22.25 9.42882 22.082 9.42882 21.875C9.42882 20.8415 10.1162 20 10.9604 20C11.8053 20 12.4921 20.8415 12.4921 21.875C12.4921 22.9085 11.8053 23.75 10.9604 23.75Z" fill="#6A6A6A"/>
<path d="M13.7174 29C12.8725 29 12.1858 28.1593 12.1858 27.125C12.1858 26.918 12.323 26.75 12.4921 26.75C12.6612 26.75 12.7984 26.918 12.7984 27.125C12.7984 27.7453 13.2107 28.25 13.7174 28.25C14.2241 28.25 14.6364 27.7453 14.6364 27.125C14.6364 26.5048 14.2241 26 13.7174 26H6.9782C6.80911 26 6.67188 25.832 6.67188 25.625C6.67188 25.418 6.80911 25.25 6.9782 25.25H13.7174C14.5623 25.25 15.249 26.0907 15.249 27.125C15.249 28.1593 14.5623 29 13.7174 29Z" fill="#6A6A6A"/>
</svg>
