<svg width="70" height="62" viewBox="0 0 70 62" fill="none" xmlns="http://www.w3.org/2000/svg">
<path d="M28.9619 42.7181C29.0318 42.5899 29.0038 42.4488 28.892 42.3591C28.7941 42.2566 28.6265 42.2438 28.5007 42.295C27.7462 42.6283 26.9217 42.795 26.0832 42.795C22.9949 42.795 20.4936 40.5002 20.4936 37.667C20.4936 36.8978 20.6753 36.1414 21.0386 35.4492C21.1084 35.321 21.0805 35.1799 20.9687 35.0902C20.8569 35.0005 20.7031 34.9749 20.5774 35.0261C18.3974 35.9748 17 38.026 17 40.231C17 43.4104 19.8228 46 23.2884 46C25.6919 46 27.9278 44.718 28.9619 42.7181L28.9619 42.7181ZM23.2884 45.359C20.2001 45.359 17.6987 43.0642 17.6987 40.231C17.6987 38.5644 18.5931 37.0132 20.0463 36.0517C19.8787 36.5773 19.7948 37.1158 19.7948 37.667C19.7948 40.8464 22.6176 43.436 26.0832 43.436C26.6841 43.436 27.2711 43.3591 27.8439 43.2053C26.7959 44.5385 25.105 45.359 23.2884 45.359L23.2884 45.359Z" fill="#6D7AE5"/>
<path d="M11.4981 51.0116C11.3584 50.9758 11.2078 51.0249 11.1331 51.1307L7.0873 56.852C7.0074 56.9668 6.98117 57.1026 7.01348 57.2329C7.0458 57.3631 7.13455 57.4786 7.26227 57.5566C7.38998 57.6347 7.54768 57.6699 7.70438 57.6552L9.41635 57.4906L8.75311 61.6966C8.73352 61.8203 8.81763 61.9391 8.95619 61.9829C9.09464 62.0268 9.25058 61.9841 9.33223 61.88L13.8936 56.0985C13.9835 55.9846 14.0184 55.8458 13.9908 55.711C13.9632 55.576 13.8755 55.4551 13.7457 55.3731C13.6157 55.291 13.4535 55.2541 13.2924 55.2698L11.5804 55.4291L11.7264 51.2794V51.2794C11.7321 51.1565 11.6379 51.046 11.4979 51.0116L11.4981 51.0116ZM13.3638 55.7972L9.56399 60.6163L10.0971 57.2203V57.2202C10.109 57.1433 10.0809 57.0659 10.0201 57.0079C9.95919 56.9498 9.87153 56.917 9.77979 56.9176H9.74327L7.63313 57.1264L11.0553 52.2898L10.9363 55.7235C10.9338 55.8012 10.9714 55.8759 11.0395 55.9283C11.1073 55.9806 11.1987 56.0056 11.2901 55.9966L13.3638 55.7972Z" fill="#DBC924"/>
<path d="M4.88985 53.8882H8.53244C8.75302 53.8882 8.93167 53.7096 8.93167 53.489C8.93167 53.2684 8.75202 53.0898 8.53244 53.0898H4.88985C2.63482 53.0898 0.800074 51.255 0.800074 48.999C0.800074 46.746 2.63482 44.9123 4.97858 44.9123C5.19516 44.9123 5.3718 44.7407 5.37681 44.5239C5.45168 41.8737 7.58688 39.7983 10.238 39.7983C12.7395 39.7983 14.8199 41.672 15.0783 44.1577C15.0903 44.2775 15.1551 44.3843 15.2559 44.4501C15.3557 44.516 15.4815 44.534 15.5943 44.4981C15.8199 44.4283 16.0495 44.3923 16.2781 44.3923C17.5818 44.3923 18.6409 45.4535 18.6409 46.7561L18.6349 46.8999C18.6279 47.0307 18.6859 47.1564 18.7886 47.2373C18.8924 47.3181 19.0283 47.342 19.1539 47.3021C19.4594 47.2053 19.7689 47.1564 20.0763 47.1564C21.7113 47.1564 23.041 48.487 23.041 50.1221C23.041 51.7592 21.7115 53.0909 20.0763 53.0909H14.2615C14.0409 53.0909 13.8622 53.2696 13.8622 53.4902C13.8622 53.7107 14.0419 53.8894 14.2615 53.8894H20.0763C22.1517 53.8894 23.8405 52.1994 23.8405 50.1221C23.8405 48.0467 22.1525 46.3579 20.0763 46.3579C19.8577 46.3579 19.6391 46.3778 19.4213 46.4157C19.2337 44.6798 17.5886 43.3512 15.8089 43.6306C15.3197 40.9613 12.9999 39 10.2388 39C7.28004 39 4.87318 41.2211 4.60281 44.1217C2.03946 44.2715 0 46.4027 0 49.0001C0 51.6953 2.19321 53.8882 4.88944 53.8882L4.88985 53.8882Z" fill="#E0E0E0"/>
<path d="M69.9619 7.71811C70.0318 7.58987 70.0038 7.44884 69.892 7.35915C69.7941 7.25658 69.6265 7.24379 69.5007 7.29503C68.7462 7.62833 67.9217 7.79501 67.0832 7.79501C63.9949 7.79501 61.4936 5.50024 61.4936 2.66703C61.4936 1.89779 61.6753 1.14143 62.0386 0.4492C62.1084 0.320964 62.0805 0.179935 61.9687 0.0902416C61.8569 0.000458412 61.7031 -0.0251174 61.5774 0.0261235C59.3974 0.974754 58 3.02599 58 5.23102C58 8.41037 60.8228 11 64.2884 11C66.6919 11 68.9278 9.71801 69.9619 7.71809L69.9619 7.71811ZM64.2884 10.359C61.2001 10.359 58.6987 8.06425 58.6987 5.23104C58.6987 3.56442 59.5931 2.01323 61.0463 1.05173C60.8787 1.57728 60.7948 2.11579 60.7948 2.66702C60.7948 5.84637 63.6176 8.436 67.0832 8.436C67.6841 8.436 68.2711 8.35909 68.8439 8.20529C67.7959 9.53852 66.105 10.359 64.2884 10.359L64.2884 10.359Z" fill="#6D7AE5"/>
<path d="M45.8899 18.8882H49.5324C49.753 18.8882 49.9317 18.7096 49.9317 18.489C49.9317 18.2684 49.752 18.0898 49.5324 18.0898H45.8899C43.6348 18.0898 41.8001 16.255 41.8001 13.999C41.8001 11.746 43.6348 9.91228 45.9786 9.91228C46.1952 9.91228 46.3718 9.74065 46.3768 9.52391C46.4517 6.87367 48.5869 4.79832 51.238 4.79832C53.7395 4.79832 55.8199 6.672 56.0783 9.1577C56.0903 9.27752 56.1551 9.38431 56.2559 9.45015C56.3557 9.51599 56.4815 9.53404 56.5943 9.49811C56.8199 9.42826 57.0495 9.39233 57.2781 9.39233C58.5818 9.39233 59.6409 10.4535 59.6409 11.7561L59.6349 11.8999C59.6279 12.0307 59.6859 12.1564 59.7886 12.2373C59.8924 12.3181 60.0283 12.342 60.1539 12.3021C60.4594 12.2053 60.7689 12.1564 61.0763 12.1564C62.7113 12.1564 64.041 13.487 64.041 15.1221C64.041 16.7592 62.7115 18.0909 61.0763 18.0909H55.2615C55.0409 18.0909 54.8622 18.2696 54.8622 18.4902C54.8622 18.7107 55.0419 18.8894 55.2615 18.8894H61.0763C63.1517 18.8894 64.8405 17.1994 64.8405 15.1221C64.8405 13.0467 63.1525 11.3579 61.0763 11.3579C60.8577 11.3579 60.6391 11.3778 60.4213 11.4157C60.2337 9.67978 58.5886 8.35121 56.8089 8.63061C56.3197 5.96129 53.9999 4 51.2388 4C48.28 4 45.8732 6.2211 45.6028 9.12174C43.0395 9.27147 41 11.4027 41 14.0001C41 16.6953 43.1932 18.8882 45.8894 18.8882L45.8899 18.8882Z" fill="#E0E0E0"/>
</svg>
