<svg width="29" height="32" viewBox="0 0 29 32" fill="none" xmlns="http://www.w3.org/2000/svg">
<path d="M28.9619 7.71811C29.0318 7.58987 29.0038 7.44884 28.892 7.35915C28.7941 7.25658 28.6265 7.24379 28.5007 7.29503C27.7462 7.62833 26.9217 7.79501 26.0832 7.79501C22.9949 7.79501 20.4936 5.50024 20.4936 2.66703C20.4936 1.89779 20.6753 1.14143 21.0386 0.4492C21.1084 0.320964 21.0805 0.179935 20.9687 0.0902416C20.8569 0.000458412 20.7031 -0.0251174 20.5774 0.0261235C18.3974 0.974754 17 3.02599 17 5.23102C17 8.41037 19.8228 11 23.2884 11C25.6919 11 27.9278 9.71801 28.9619 7.71809L28.9619 7.71811ZM23.2884 10.359C20.2001 10.359 17.6987 8.06425 17.6987 5.23104C17.6987 3.56442 18.5931 2.01323 20.0463 1.05173C19.8787 1.57728 19.7948 2.11579 19.7948 2.66702C19.7948 5.84637 22.6176 8.436 26.0832 8.436C26.6841 8.436 27.2711 8.35909 27.8439 8.20529C26.7959 9.53852 25.105 10.359 23.2884 10.359L23.2884 10.359Z" fill="#6D7AE5"/>
<path d="M7.98709 29.9764V24.4935C7.98709 24.2208 7.76501 24 7.49355 24C7.22209 24 7 24.2221 7 24.4935V29.9753C7 30.248 7.22209 30.4689 7.49355 30.4689C7.7648 30.4689 7.98709 30.248 7.98709 29.9764V29.9764Z" fill="#514EF9"/>
<path d="M13 25.4935V30.9753C13 31.248 13.2221 31.4689 13.4935 31.4689C13.765 31.4689 13.9871 31.2468 13.9871 30.9753V25.4935C13.9871 25.2208 13.765 25 13.4935 25C13.2221 25 13 25.2208 13 25.4935Z" fill="#514EF9"/>
<path d="M10 29.2289V31.7711C10 31.8976 10.225 32 10.5 32C10.775 32 11 31.897 11 31.7711V29.2289C11 29.1024 10.775 29 10.5 29C10.225 29 10 29.1024 10 29.2289Z" fill="#514EF9"/>
<path d="M5 20.3815V24.6185C5 24.8293 5.22499 25 5.5 25C5.77501 25 6 24.8283 6 24.6185V20.3815C6 20.1707 5.77501 20 5.5 20C5.22499 20 5 20.1707 5 20.3815Z" fill="#514EF9"/>
<path d="M15 22.4935V27.9738C15 28.2465 15.2221 28.4673 15.4935 28.4673C15.765 28.4673 15.9871 28.2452 15.9871 27.9738V22.4935C15.9871 22.2208 15.765 22 15.4935 22C15.2221 22 15 22.2221 15 22.4935Z" fill="#514EF9"/>
<path d="M11.4981 16.0116C11.3584 15.9758 11.2078 16.0249 11.1331 16.1307L7.0873 21.852C7.0074 21.9668 6.98117 22.1026 7.01348 22.2329C7.0458 22.3631 7.13455 22.4786 7.26227 22.5566C7.38998 22.6347 7.54768 22.6699 7.70438 22.6552L9.41635 22.4906L8.75311 26.6966C8.73352 26.8203 8.81763 26.9391 8.95619 26.9829C9.09464 27.0268 9.25058 26.9841 9.33223 26.88L13.8936 21.0985C13.9835 20.9846 14.0184 20.8458 13.9908 20.711C13.9632 20.576 13.8755 20.4551 13.7457 20.3731C13.6157 20.291 13.4535 20.2541 13.2924 20.2698L11.5804 20.4291L11.7264 16.2794V16.2794C11.7321 16.1565 11.6379 16.046 11.4979 16.0116L11.4981 16.0116ZM13.3638 20.7972L9.56399 25.6163L10.0971 22.2203V22.2202C10.109 22.1433 10.0809 22.0659 10.0201 22.0079C9.95919 21.9498 9.87153 21.917 9.77979 21.9176H9.74327L7.63313 22.1264L11.0553 17.2898L10.9363 20.7235C10.9338 20.8012 10.9714 20.8759 11.0395 20.9283C11.1073 20.9806 11.1987 21.0056 11.2901 20.9966L13.3638 20.7972Z" fill="#DBC924"/>
<path d="M4.88985 18.8882H8.53244C8.75303 18.8882 8.93167 18.7096 8.93167 18.489C8.93167 18.2684 8.75202 18.0898 8.53244 18.0898H4.88985C2.63482 18.0898 0.800074 16.255 0.800074 13.999C0.800074 11.746 2.63482 9.91228 4.97858 9.91228C5.19516 9.91228 5.3718 9.74065 5.37681 9.52391C5.45168 6.87367 7.58688 4.79832 10.238 4.79832C12.7395 4.79832 14.8199 6.672 15.0783 9.1577C15.0903 9.27752 15.1551 9.38431 15.2559 9.45015C15.3557 9.51599 15.4815 9.53404 15.5943 9.49811C15.8199 9.42826 16.0495 9.39233 16.2781 9.39233C17.5818 9.39233 18.6409 10.4535 18.6409 11.7561L18.6349 11.8999C18.6279 12.0307 18.6859 12.1564 18.7886 12.2373C18.8924 12.3181 19.0283 12.342 19.1539 12.3021C19.4594 12.2053 19.7689 12.1564 20.0763 12.1564C21.7113 12.1564 23.041 13.487 23.041 15.1221C23.041 16.7592 21.7115 18.0909 20.0763 18.0909H14.2615C14.0409 18.0909 13.8622 18.2696 13.8622 18.4902C13.8622 18.7107 14.0419 18.8894 14.2615 18.8894H20.0763C22.1517 18.8894 23.8405 17.1994 23.8405 15.1221C23.8405 13.0467 22.1525 11.3579 20.0763 11.3579C19.8577 11.3579 19.6391 11.3778 19.4213 11.4157C19.2337 9.67978 17.5886 8.35121 15.8089 8.63061C15.3197 5.96129 12.9999 4 10.2388 4C7.28004 4 4.87318 6.2211 4.60281 9.12174C2.03946 9.27147 0 11.4027 0 14.0001C0 16.6953 2.19321 18.8882 4.88944 18.8882L4.88985 18.8882Z" fill="#E0E0E0"/>
</svg>
